<mxfile host="Electron" agent="Mozilla/5.0 (X11; Linux x86_64) AppleWebKit/537.36 (KHTML, like Gecko) draw.io/26.0.16 Chrome/132.0.6834.196 Electron/34.2.0 Safari/537.36" version="26.0.16">
  <diagram id="C5RBs43oDa-KdzZeNtuy" name="Page-1">
    <mxGraphModel dx="1434" dy="799" grid="1" gridSize="10" guides="1" tooltips="1" connect="1" arrows="1" fold="1" page="1" pageScale="1" pageWidth="3000" pageHeight="3000" math="0" shadow="0">
      <root>
        <mxCell id="WIyWlLk6GJQsqaUBKTNV-0" />
        <mxCell id="WIyWlLk6GJQsqaUBKTNV-1" parent="WIyWlLk6GJQsqaUBKTNV-0" />
        <mxCell id="YPjIWQZWxmA1oh4F8OOP-9" style="edgeStyle=orthogonalEdgeStyle;rounded=0;orthogonalLoop=1;jettySize=auto;html=1;entryX=0.5;entryY=0;entryDx=0;entryDy=0;" parent="WIyWlLk6GJQsqaUBKTNV-1" source="4TRNi6pCDRtCIutJIhP7-0" target="by09u7J7J3zAaNDgYdJO-0" edge="1">
          <mxGeometry relative="1" as="geometry" />
        </mxCell>
        <mxCell id="4TRNi6pCDRtCIutJIhP7-0" value="Finish" style="ellipse;whiteSpace=wrap;html=1;labelBackgroundColor=none;" parent="WIyWlLk6GJQsqaUBKTNV-1" vertex="1">
          <mxGeometry x="100" y="50" width="80" height="40" as="geometry" />
        </mxCell>
        <mxCell id="4TRNi6pCDRtCIutJIhP7-30" style="edgeStyle=orthogonalEdgeStyle;rounded=0;orthogonalLoop=1;jettySize=auto;html=1;labelBackgroundColor=none;fontColor=default;" parent="WIyWlLk6GJQsqaUBKTNV-1" source="4TRNi6pCDRtCIutJIhP7-1" target="4TRNi6pCDRtCIutJIhP7-29" edge="1">
          <mxGeometry relative="1" as="geometry" />
        </mxCell>
        <mxCell id="4TRNi6pCDRtCIutJIhP7-1" value="Cleaned the robot " style="rounded=1;whiteSpace=wrap;html=1;labelBackgroundColor=none;" parent="WIyWlLk6GJQsqaUBKTNV-1" vertex="1">
          <mxGeometry x="80" y="906.25" width="120" height="60" as="geometry" />
        </mxCell>
        <mxCell id="4TRNi6pCDRtCIutJIhP7-37" style="edgeStyle=orthogonalEdgeStyle;rounded=0;orthogonalLoop=1;jettySize=auto;html=1;entryX=0.5;entryY=0;entryDx=0;entryDy=0;labelBackgroundColor=none;fontColor=default;" parent="WIyWlLk6GJQsqaUBKTNV-1" source="4TRNi6pCDRtCIutJIhP7-3" target="4TRNi6pCDRtCIutJIhP7-36" edge="1">
          <mxGeometry relative="1" as="geometry" />
        </mxCell>
        <mxCell id="4TRNi6pCDRtCIutJIhP7-3" value="Cleaned the base and cord tied up " style="rounded=1;whiteSpace=wrap;html=1;labelBackgroundColor=none;" parent="WIyWlLk6GJQsqaUBKTNV-1" vertex="1">
          <mxGeometry x="270" y="1011.25" width="120" height="60" as="geometry" />
        </mxCell>
        <mxCell id="4TRNi6pCDRtCIutJIhP7-43" style="edgeStyle=orthogonalEdgeStyle;rounded=0;orthogonalLoop=1;jettySize=auto;html=1;entryX=0.5;entryY=0;entryDx=0;entryDy=0;labelBackgroundColor=none;fontColor=default;" parent="WIyWlLk6GJQsqaUBKTNV-1" source="4TRNi6pCDRtCIutJIhP7-5" edge="1">
          <mxGeometry relative="1" as="geometry">
            <mxPoint x="330" y="1301.25" as="targetPoint" />
          </mxGeometry>
        </mxCell>
        <mxCell id="4TRNi6pCDRtCIutJIhP7-5" value="Additional dock, and any other parts (comma seperated) _has_bag" style="rounded=1;whiteSpace=wrap;html=1;labelBackgroundColor=none;" parent="WIyWlLk6GJQsqaUBKTNV-1" vertex="1">
          <mxGeometry x="270" y="1211.25" width="120" height="60" as="geometry" />
        </mxCell>
        <mxCell id="4TRNi6pCDRtCIutJIhP7-57" style="edgeStyle=orthogonalEdgeStyle;rounded=0;orthogonalLoop=1;jettySize=auto;html=1;entryX=0.5;entryY=0;entryDx=0;entryDy=0;labelBackgroundColor=none;fontColor=default;" parent="WIyWlLk6GJQsqaUBKTNV-1" source="4TRNi6pCDRtCIutJIhP7-6" target="YPjIWQZWxmA1oh4F8OOP-59" edge="1">
          <mxGeometry relative="1" as="geometry" />
        </mxCell>
        <mxCell id="4TRNi6pCDRtCIutJIhP7-6" value="Tank is emptied " style="rounded=1;whiteSpace=wrap;html=1;labelBackgroundColor=none;" parent="WIyWlLk6GJQsqaUBKTNV-1" vertex="1">
          <mxGeometry x="270" y="1556.25" width="120" height="60" as="geometry" />
        </mxCell>
        <mxCell id="4TRNi6pCDRtCIutJIhP7-26" style="edgeStyle=orthogonalEdgeStyle;rounded=0;orthogonalLoop=1;jettySize=auto;html=1;entryX=1;entryY=0.5;entryDx=0;entryDy=0;labelBackgroundColor=none;fontColor=default;exitX=0;exitY=0.5;exitDx=0;exitDy=0;" parent="WIyWlLk6GJQsqaUBKTNV-1" source="4TRNi6pCDRtCIutJIhP7-7" target="4TRNi6pCDRtCIutJIhP7-25" edge="1">
          <mxGeometry relative="1" as="geometry" />
        </mxCell>
        <mxCell id="4TRNi6pCDRtCIutJIhP7-7" value="Dock tank is emptied " style="rounded=1;whiteSpace=wrap;html=1;labelBackgroundColor=none;" parent="WIyWlLk6GJQsqaUBKTNV-1" vertex="1">
          <mxGeometry x="270" y="1446.25" width="120" height="60" as="geometry" />
        </mxCell>
        <mxCell id="4TRNi6pCDRtCIutJIhP7-58" style="edgeStyle=orthogonalEdgeStyle;rounded=0;orthogonalLoop=1;jettySize=auto;html=1;entryX=1;entryY=0.5;entryDx=0;entryDy=0;labelBackgroundColor=none;fontColor=default;" parent="WIyWlLk6GJQsqaUBKTNV-1" source="4TRNi6pCDRtCIutJIhP7-9" edge="1">
          <mxGeometry relative="1" as="geometry">
            <Array as="points">
              <mxPoint x="330" y="1776.25" />
            </Array>
            <mxPoint x="200" y="1776.25" as="targetPoint" />
          </mxGeometry>
        </mxCell>
        <mxCell id="4TRNi6pCDRtCIutJIhP7-9" value="There's a clean pad on the bot " style="rounded=1;whiteSpace=wrap;html=1;labelBackgroundColor=none;" parent="WIyWlLk6GJQsqaUBKTNV-1" vertex="1">
          <mxGeometry x="250" y="1701.25" width="120" height="60" as="geometry" />
        </mxCell>
        <mxCell id="4TRNi6pCDRtCIutJIhP7-68" value="True" style="edgeStyle=orthogonalEdgeStyle;rounded=0;orthogonalLoop=1;jettySize=auto;html=1;entryX=0.5;entryY=0;entryDx=0;entryDy=0;labelBackgroundColor=none;fontColor=default;" parent="WIyWlLk6GJQsqaUBKTNV-1" source="SEcOQ4zRB9NBcKpOXhuR-8" target="4TRNi6pCDRtCIutJIhP7-67" edge="1">
          <mxGeometry relative="1" as="geometry">
            <mxPoint x="140" y="1916.25" as="sourcePoint" />
          </mxGeometry>
        </mxCell>
        <mxCell id="YPjIWQZWxmA1oh4F8OOP-10" style="edgeStyle=orthogonalEdgeStyle;rounded=0;orthogonalLoop=1;jettySize=auto;html=1;" parent="WIyWlLk6GJQsqaUBKTNV-1" source="4TRNi6pCDRtCIutJIhP7-13" target="4TRNi6pCDRtCIutJIhP7-1" edge="1">
          <mxGeometry relative="1" as="geometry" />
        </mxCell>
        <mxCell id="4TRNi6pCDRtCIutJIhP7-12" value="Have the case double checked  " style="rounded=1;whiteSpace=wrap;html=1;labelBackgroundColor=none;" parent="WIyWlLk6GJQsqaUBKTNV-1" vertex="1">
          <mxGeometry x="80" y="735" width="120" height="60" as="geometry" />
        </mxCell>
        <mxCell id="pERgeG-NBUjvUuYuyOd--8" style="edgeStyle=orthogonalEdgeStyle;rounded=0;orthogonalLoop=1;jettySize=auto;html=1;entryX=0.5;entryY=0;entryDx=0;entryDy=0;" parent="WIyWlLk6GJQsqaUBKTNV-1" source="4TRNi6pCDRtCIutJIhP7-15" target="YPjIWQZWxmA1oh4F8OOP-14" edge="1">
          <mxGeometry relative="1" as="geometry" />
        </mxCell>
        <mxCell id="4TRNi6pCDRtCIutJIhP7-15" value="All tags are off and grab the traveler " style="rounded=1;whiteSpace=wrap;html=1;labelBackgroundColor=none;" parent="WIyWlLk6GJQsqaUBKTNV-1" vertex="1">
          <mxGeometry x="80" y="2300" width="120" height="60" as="geometry" />
        </mxCell>
        <mxCell id="4TRNi6pCDRtCIutJIhP7-193" style="edgeStyle=orthogonalEdgeStyle;rounded=0;orthogonalLoop=1;jettySize=auto;html=1;entryX=0.5;entryY=0;entryDx=0;entryDy=0;labelBackgroundColor=none;fontColor=default;" parent="WIyWlLk6GJQsqaUBKTNV-1" source="4TRNi6pCDRtCIutJIhP7-17" target="4TRNi6pCDRtCIutJIhP7-192" edge="1">
          <mxGeometry relative="1" as="geometry" />
        </mxCell>
        <mxCell id="4TRNi6pCDRtCIutJIhP7-17" value="Put the robot and traveler on the shelf " style="rounded=1;whiteSpace=wrap;html=1;labelBackgroundColor=none;" parent="WIyWlLk6GJQsqaUBKTNV-1" vertex="1">
          <mxGeometry x="75" y="3507.5" width="140" height="60" as="geometry" />
        </mxCell>
        <mxCell id="SEcOQ4zRB9NBcKpOXhuR-4" style="edgeStyle=orthogonalEdgeStyle;rounded=0;orthogonalLoop=1;jettySize=auto;html=1;" parent="WIyWlLk6GJQsqaUBKTNV-1" source="4TRNi6pCDRtCIutJIhP7-18" target="3pm61Zj5QoI2iHKxV5r9-5" edge="1">
          <mxGeometry relative="1" as="geometry" />
        </mxCell>
        <mxCell id="4TRNi6pCDRtCIutJIhP7-18" value="Finish the case on CSS  " style="rounded=1;whiteSpace=wrap;html=1;labelBackgroundColor=none;" parent="WIyWlLk6GJQsqaUBKTNV-1" vertex="1">
          <mxGeometry x="60" y="3180" width="180" height="60" as="geometry" />
        </mxCell>
        <mxCell id="4TRNi6pCDRtCIutJIhP7-50" style="edgeStyle=orthogonalEdgeStyle;rounded=0;orthogonalLoop=1;jettySize=auto;html=1;labelBackgroundColor=none;fontColor=default;entryX=0.5;entryY=0;entryDx=0;entryDy=0;" parent="WIyWlLk6GJQsqaUBKTNV-1" source="4TRNi6pCDRtCIutJIhP7-25" target="g3EVMuYso_FqyBGCc2nE-64" edge="1">
          <mxGeometry relative="1" as="geometry">
            <mxPoint x="140" y="1546.25" as="targetPoint" />
          </mxGeometry>
        </mxCell>
        <mxCell id="4TRNi6pCDRtCIutJIhP7-25" value="Bin is cleaned out and the debug cover is in place " style="rounded=1;whiteSpace=wrap;html=1;labelBackgroundColor=none;" parent="WIyWlLk6GJQsqaUBKTNV-1" vertex="1">
          <mxGeometry x="80" y="1446.25" width="120" height="60" as="geometry" />
        </mxCell>
        <mxCell id="4TRNi6pCDRtCIutJIhP7-32" style="edgeStyle=orthogonalEdgeStyle;rounded=0;orthogonalLoop=1;jettySize=auto;html=1;labelBackgroundColor=none;fontColor=default;" parent="WIyWlLk6GJQsqaUBKTNV-1" source="4TRNi6pCDRtCIutJIhP7-29" target="4TRNi6pCDRtCIutJIhP7-3" edge="1">
          <mxGeometry relative="1" as="geometry" />
        </mxCell>
        <mxCell id="4TRNi6pCDRtCIutJIhP7-33" value="True" style="edgeLabel;html=1;align=center;verticalAlign=middle;resizable=0;points=[];labelBackgroundColor=none;" parent="4TRNi6pCDRtCIutJIhP7-32" vertex="1" connectable="0">
          <mxGeometry relative="1" as="geometry">
            <mxPoint as="offset" />
          </mxGeometry>
        </mxCell>
        <mxCell id="4TRNi6pCDRtCIutJIhP7-34" style="edgeStyle=orthogonalEdgeStyle;rounded=0;orthogonalLoop=1;jettySize=auto;html=1;labelBackgroundColor=none;fontColor=default;entryX=0.5;entryY=0;entryDx=0;entryDy=0;" parent="WIyWlLk6GJQsqaUBKTNV-1" source="4TRNi6pCDRtCIutJIhP7-29" target="g3EVMuYso_FqyBGCc2nE-66" edge="1">
          <mxGeometry relative="1" as="geometry">
            <mxPoint x="140" y="1266.25" as="targetPoint" />
          </mxGeometry>
        </mxCell>
        <mxCell id="4TRNi6pCDRtCIutJIhP7-35" value="False" style="edgeLabel;html=1;align=center;verticalAlign=middle;resizable=0;points=[];labelBackgroundColor=none;" parent="4TRNi6pCDRtCIutJIhP7-34" vertex="1" connectable="0">
          <mxGeometry x="-0.2653" y="5" relative="1" as="geometry">
            <mxPoint x="5" y="-114" as="offset" />
          </mxGeometry>
        </mxCell>
        <mxCell id="4TRNi6pCDRtCIutJIhP7-29" value="if dock" style="rhombus;whiteSpace=wrap;html=1;labelBackgroundColor=none;" parent="WIyWlLk6GJQsqaUBKTNV-1" vertex="1">
          <mxGeometry x="100" y="1001.25" width="80" height="80" as="geometry" />
        </mxCell>
        <mxCell id="4TRNi6pCDRtCIutJIhP7-38" style="edgeStyle=orthogonalEdgeStyle;rounded=0;orthogonalLoop=1;jettySize=auto;html=1;entryX=0.5;entryY=0;entryDx=0;entryDy=0;labelBackgroundColor=none;fontColor=default;" parent="WIyWlLk6GJQsqaUBKTNV-1" source="4TRNi6pCDRtCIutJIhP7-36" target="4TRNi6pCDRtCIutJIhP7-5" edge="1">
          <mxGeometry relative="1" as="geometry" />
        </mxCell>
        <mxCell id="4TRNi6pCDRtCIutJIhP7-39" value="True" style="edgeLabel;html=1;align=center;verticalAlign=middle;resizable=0;points=[];labelBackgroundColor=none;" parent="4TRNi6pCDRtCIutJIhP7-38" vertex="1" connectable="0">
          <mxGeometry x="0.1111" y="2" relative="1" as="geometry">
            <mxPoint as="offset" />
          </mxGeometry>
        </mxCell>
        <mxCell id="4TRNi6pCDRtCIutJIhP7-40" style="edgeStyle=orthogonalEdgeStyle;rounded=0;orthogonalLoop=1;jettySize=auto;html=1;labelBackgroundColor=none;fontColor=default;" parent="WIyWlLk6GJQsqaUBKTNV-1" source="4TRNi6pCDRtCIutJIhP7-36" edge="1">
          <mxGeometry relative="1" as="geometry">
            <mxPoint x="140" y="1136.25" as="targetPoint" />
          </mxGeometry>
        </mxCell>
        <mxCell id="4TRNi6pCDRtCIutJIhP7-41" value="False" style="edgeLabel;html=1;align=center;verticalAlign=middle;resizable=0;points=[];labelBackgroundColor=none;" parent="4TRNi6pCDRtCIutJIhP7-40" vertex="1" connectable="0">
          <mxGeometry x="-0.4286" y="-2" relative="1" as="geometry">
            <mxPoint x="-27" y="2" as="offset" />
          </mxGeometry>
        </mxCell>
        <mxCell id="4TRNi6pCDRtCIutJIhP7-36" value="if is_dock" style="rhombus;whiteSpace=wrap;html=1;labelBackgroundColor=none;" parent="WIyWlLk6GJQsqaUBKTNV-1" vertex="1">
          <mxGeometry x="290" y="1096.25" width="80" height="80" as="geometry" />
        </mxCell>
        <mxCell id="4TRNi6pCDRtCIutJIhP7-44" style="edgeStyle=orthogonalEdgeStyle;rounded=0;orthogonalLoop=1;jettySize=auto;html=1;entryX=0.5;entryY=0;entryDx=0;entryDy=0;labelBackgroundColor=none;fontColor=default;exitX=0.5;exitY=1;exitDx=0;exitDy=0;" parent="WIyWlLk6GJQsqaUBKTNV-1" source="g3EVMuYso_FqyBGCc2nE-0" target="4TRNi6pCDRtCIutJIhP7-7" edge="1">
          <mxGeometry relative="1" as="geometry">
            <mxPoint x="330" y="1376.25" as="sourcePoint" />
          </mxGeometry>
        </mxCell>
        <mxCell id="4TRNi6pCDRtCIutJIhP7-46" value="True" style="edgeLabel;html=1;align=center;verticalAlign=middle;resizable=0;points=[];labelBackgroundColor=none;" parent="4TRNi6pCDRtCIutJIhP7-44" vertex="1" connectable="0">
          <mxGeometry x="-0.3231" y="1" relative="1" as="geometry">
            <mxPoint as="offset" />
          </mxGeometry>
        </mxCell>
        <mxCell id="4TRNi6pCDRtCIutJIhP7-45" style="edgeStyle=orthogonalEdgeStyle;rounded=0;orthogonalLoop=1;jettySize=auto;html=1;labelBackgroundColor=none;fontColor=default;entryX=1;entryY=0.5;entryDx=0;entryDy=0;" parent="WIyWlLk6GJQsqaUBKTNV-1" target="g3EVMuYso_FqyBGCc2nE-66" edge="1">
          <mxGeometry relative="1" as="geometry">
            <mxPoint x="140" y="1341.25" as="targetPoint" />
            <mxPoint x="235" y="1341.25" as="sourcePoint" />
          </mxGeometry>
        </mxCell>
        <mxCell id="4TRNi6pCDRtCIutJIhP7-47" value="False" style="edgeLabel;html=1;align=center;verticalAlign=middle;resizable=0;points=[];labelBackgroundColor=none;" parent="4TRNi6pCDRtCIutJIhP7-45" vertex="1" connectable="0">
          <mxGeometry x="-0.33" relative="1" as="geometry">
            <mxPoint x="-3" as="offset" />
          </mxGeometry>
        </mxCell>
        <mxCell id="4TRNi6pCDRtCIutJIhP7-52" value="``" style="edgeStyle=orthogonalEdgeStyle;rounded=0;orthogonalLoop=1;jettySize=auto;html=1;entryX=0;entryY=0.5;entryDx=0;entryDy=0;labelBackgroundColor=none;fontColor=default;" parent="WIyWlLk6GJQsqaUBKTNV-1" source="4TRNi6pCDRtCIutJIhP7-48" target="4TRNi6pCDRtCIutJIhP7-6" edge="1">
          <mxGeometry relative="1" as="geometry" />
        </mxCell>
        <mxCell id="4TRNi6pCDRtCIutJIhP7-53" value="True" style="edgeLabel;html=1;align=center;verticalAlign=middle;resizable=0;points=[];labelBackgroundColor=none;" parent="4TRNi6pCDRtCIutJIhP7-52" vertex="1" connectable="0">
          <mxGeometry x="0.1778" y="-2" relative="1" as="geometry">
            <mxPoint as="offset" />
          </mxGeometry>
        </mxCell>
        <mxCell id="4TRNi6pCDRtCIutJIhP7-54" style="edgeStyle=orthogonalEdgeStyle;rounded=0;orthogonalLoop=1;jettySize=auto;html=1;entryX=0.5;entryY=0;entryDx=0;entryDy=0;labelBackgroundColor=none;fontColor=default;" parent="WIyWlLk6GJQsqaUBKTNV-1" source="4TRNi6pCDRtCIutJIhP7-48" edge="1">
          <mxGeometry relative="1" as="geometry">
            <mxPoint x="140" y="1746.25" as="targetPoint" />
          </mxGeometry>
        </mxCell>
        <mxCell id="4TRNi6pCDRtCIutJIhP7-55" value="False" style="edgeLabel;html=1;align=center;verticalAlign=middle;resizable=0;points=[];labelBackgroundColor=none;" parent="4TRNi6pCDRtCIutJIhP7-54" vertex="1" connectable="0">
          <mxGeometry x="-0.1667" y="-2" relative="1" as="geometry">
            <mxPoint as="offset" />
          </mxGeometry>
        </mxCell>
        <mxCell id="4TRNi6pCDRtCIutJIhP7-48" value="if is_mopping" style="rhombus;whiteSpace=wrap;html=1;labelBackgroundColor=none;" parent="WIyWlLk6GJQsqaUBKTNV-1" vertex="1">
          <mxGeometry x="100" y="1621.25" width="80" height="80" as="geometry" />
        </mxCell>
        <mxCell id="SEcOQ4zRB9NBcKpOXhuR-10" value="" style="edgeStyle=orthogonalEdgeStyle;rounded=0;orthogonalLoop=1;jettySize=auto;html=1;" parent="WIyWlLk6GJQsqaUBKTNV-1" source="4TRNi6pCDRtCIutJIhP7-67" target="SEcOQ4zRB9NBcKpOXhuR-9" edge="1">
          <mxGeometry relative="1" as="geometry" />
        </mxCell>
        <mxCell id="4TRNi6pCDRtCIutJIhP7-67" value="The bot has a sidebrush on and screws are tight " style="rounded=1;whiteSpace=wrap;html=1;labelBackgroundColor=none;" parent="WIyWlLk6GJQsqaUBKTNV-1" vertex="1">
          <mxGeometry x="80" y="1930" width="120" height="60" as="geometry" />
        </mxCell>
        <mxCell id="Y3o4zUVy-MV-adPHcKIv-2" style="edgeStyle=orthogonalEdgeStyle;rounded=0;orthogonalLoop=1;jettySize=auto;html=1;entryX=0.5;entryY=0;entryDx=0;entryDy=0;labelBackgroundColor=none;fontColor=default;" parent="WIyWlLk6GJQsqaUBKTNV-1" source="4TRNi6pCDRtCIutJIhP7-70" target="Y3o4zUVy-MV-adPHcKIv-0" edge="1">
          <mxGeometry relative="1" as="geometry" />
        </mxCell>
        <mxCell id="4TRNi6pCDRtCIutJIhP7-70" value="Confirm" style="ellipse;whiteSpace=wrap;html=1;labelBackgroundColor=none;" parent="WIyWlLk6GJQsqaUBKTNV-1" vertex="1">
          <mxGeometry x="560" y="50" width="80" height="40" as="geometry" />
        </mxCell>
        <mxCell id="4TRNi6pCDRtCIutJIhP7-74" style="edgeStyle=orthogonalEdgeStyle;rounded=0;orthogonalLoop=1;jettySize=auto;html=1;labelBackgroundColor=none;fontColor=default;" parent="WIyWlLk6GJQsqaUBKTNV-1" source="4TRNi6pCDRtCIutJIhP7-71" target="4TRNi6pCDRtCIutJIhP7-73" edge="1">
          <mxGeometry relative="1" as="geometry" />
        </mxCell>
        <mxCell id="4TRNi6pCDRtCIutJIhP7-71" value="Put labels on everything " style="rounded=1;whiteSpace=wrap;html=1;labelBackgroundColor=none;" parent="WIyWlLk6GJQsqaUBKTNV-1" vertex="1">
          <mxGeometry x="539" y="422.5" width="120" height="60" as="geometry" />
        </mxCell>
        <mxCell id="4TRNi6pCDRtCIutJIhP7-76" style="edgeStyle=orthogonalEdgeStyle;rounded=0;orthogonalLoop=1;jettySize=auto;html=1;entryX=0;entryY=0.5;entryDx=0;entryDy=0;labelBackgroundColor=none;fontColor=default;" parent="WIyWlLk6GJQsqaUBKTNV-1" source="4TRNi6pCDRtCIutJIhP7-73" edge="1">
          <mxGeometry relative="1" as="geometry">
            <mxPoint x="699" y="557.5" as="targetPoint" />
          </mxGeometry>
        </mxCell>
        <mxCell id="4TRNi6pCDRtCIutJIhP7-77" value="False" style="edgeLabel;html=1;align=center;verticalAlign=middle;resizable=0;points=[];labelBackgroundColor=none;" parent="4TRNi6pCDRtCIutJIhP7-76" vertex="1" connectable="0">
          <mxGeometry x="-0.1" relative="1" as="geometry">
            <mxPoint as="offset" />
          </mxGeometry>
        </mxCell>
        <mxCell id="4TRNi6pCDRtCIutJIhP7-79" value="True" style="edgeStyle=orthogonalEdgeStyle;rounded=0;orthogonalLoop=1;jettySize=auto;html=1;entryX=0.5;entryY=0;entryDx=0;entryDy=0;labelBackgroundColor=none;fontColor=default;" parent="WIyWlLk6GJQsqaUBKTNV-1" source="4TRNi6pCDRtCIutJIhP7-73" target="4TRNi6pCDRtCIutJIhP7-78" edge="1">
          <mxGeometry relative="1" as="geometry" />
        </mxCell>
        <mxCell id="4TRNi6pCDRtCIutJIhP7-73" value="if identical" style="rhombus;whiteSpace=wrap;html=1;labelBackgroundColor=none;" parent="WIyWlLk6GJQsqaUBKTNV-1" vertex="1">
          <mxGeometry x="559" y="517.5" width="80" height="80" as="geometry" />
        </mxCell>
        <mxCell id="4TRNi6pCDRtCIutJIhP7-81" style="edgeStyle=orthogonalEdgeStyle;rounded=0;orthogonalLoop=1;jettySize=auto;html=1;entryX=0.5;entryY=0;entryDx=0;entryDy=0;labelBackgroundColor=none;fontColor=default;" parent="WIyWlLk6GJQsqaUBKTNV-1" source="4TRNi6pCDRtCIutJIhP7-78" target="4TRNi6pCDRtCIutJIhP7-80" edge="1">
          <mxGeometry relative="1" as="geometry" />
        </mxCell>
        <mxCell id="4TRNi6pCDRtCIutJIhP7-78" value="Is the case a repeat " style="rounded=1;whiteSpace=wrap;html=1;labelBackgroundColor=none;" parent="WIyWlLk6GJQsqaUBKTNV-1" vertex="1">
          <mxGeometry x="539" y="632.5" width="120" height="60" as="geometry" />
        </mxCell>
        <mxCell id="3pm61Zj5QoI2iHKxV5r9-41" value="" style="edgeStyle=orthogonalEdgeStyle;rounded=0;orthogonalLoop=1;jettySize=auto;html=1;" parent="WIyWlLk6GJQsqaUBKTNV-1" source="4TRNi6pCDRtCIutJIhP7-80" target="4TRNi6pCDRtCIutJIhP7-84" edge="1">
          <mxGeometry relative="1" as="geometry" />
        </mxCell>
        <mxCell id="4TRNi6pCDRtCIutJIhP7-80" value="Check the claimed damage" style="rounded=1;whiteSpace=wrap;html=1;labelBackgroundColor=none;" parent="WIyWlLk6GJQsqaUBKTNV-1" vertex="1">
          <mxGeometry x="529" y="732.5" width="140" height="60" as="geometry" />
        </mxCell>
        <mxCell id="4TRNi6pCDRtCIutJIhP7-88" style="edgeStyle=orthogonalEdgeStyle;rounded=0;orthogonalLoop=1;jettySize=auto;html=1;labelBackgroundColor=none;fontColor=default;" parent="WIyWlLk6GJQsqaUBKTNV-1" source="4TRNi6pCDRtCIutJIhP7-84" target="4TRNi6pCDRtCIutJIhP7-87" edge="1">
          <mxGeometry relative="1" as="geometry" />
        </mxCell>
        <mxCell id="4TRNi6pCDRtCIutJIhP7-84" value="Additional dock, and any other parts (comma seperated) " style="rounded=1;whiteSpace=wrap;html=1;labelBackgroundColor=none;" parent="WIyWlLk6GJQsqaUBKTNV-1" vertex="1">
          <mxGeometry x="540" y="835" width="120" height="60" as="geometry" />
        </mxCell>
        <mxCell id="YPjIWQZWxmA1oh4F8OOP-1" style="edgeStyle=orthogonalEdgeStyle;rounded=0;orthogonalLoop=1;jettySize=auto;html=1;" parent="WIyWlLk6GJQsqaUBKTNV-1" source="4TRNi6pCDRtCIutJIhP7-87" target="YPjIWQZWxmA1oh4F8OOP-0" edge="1">
          <mxGeometry relative="1" as="geometry" />
        </mxCell>
        <mxCell id="4TRNi6pCDRtCIutJIhP7-87" value="Additional damage " style="rounded=1;whiteSpace=wrap;html=1;labelBackgroundColor=none;" parent="WIyWlLk6GJQsqaUBKTNV-1" vertex="1">
          <mxGeometry x="540" y="925" width="120" height="60" as="geometry" />
        </mxCell>
        <mxCell id="Y3o4zUVy-MV-adPHcKIv-4" style="edgeStyle=orthogonalEdgeStyle;rounded=0;orthogonalLoop=1;jettySize=auto;html=1;labelBackgroundColor=none;fontColor=default;" parent="WIyWlLk6GJQsqaUBKTNV-1" source="4TRNi6pCDRtCIutJIhP7-89" target="Y3o4zUVy-MV-adPHcKIv-3" edge="1">
          <mxGeometry relative="1" as="geometry" />
        </mxCell>
        <mxCell id="4TRNi6pCDRtCIutJIhP7-89" value="Customer States" style="rounded=1;whiteSpace=wrap;html=1;labelBackgroundColor=none;" parent="WIyWlLk6GJQsqaUBKTNV-1" vertex="1">
          <mxGeometry x="540" y="1271.25" width="120" height="60" as="geometry" />
        </mxCell>
        <mxCell id="4TRNi6pCDRtCIutJIhP7-91" value="Routine checks" style="ellipse;whiteSpace=wrap;html=1;labelBackgroundColor=none;" parent="WIyWlLk6GJQsqaUBKTNV-1" vertex="1">
          <mxGeometry x="540" y="1451.25" width="120" height="80" as="geometry" />
        </mxCell>
        <mxCell id="4TRNi6pCDRtCIutJIhP7-95" style="edgeStyle=orthogonalEdgeStyle;rounded=0;orthogonalLoop=1;jettySize=auto;html=1;labelBackgroundColor=none;fontColor=default;" parent="WIyWlLk6GJQsqaUBKTNV-1" source="4TRNi6pCDRtCIutJIhP7-93" target="4TRNi6pCDRtCIutJIhP7-94" edge="1">
          <mxGeometry relative="1" as="geometry" />
        </mxCell>
        <mxCell id="4TRNi6pCDRtCIutJIhP7-93" value="Routine Checks" style="ellipse;whiteSpace=wrap;html=1;labelBackgroundColor=none;" parent="WIyWlLk6GJQsqaUBKTNV-1" vertex="1">
          <mxGeometry x="910" y="50" width="120" height="80" as="geometry" />
        </mxCell>
        <mxCell id="g3EVMuYso_FqyBGCc2nE-35" style="edgeStyle=orthogonalEdgeStyle;rounded=0;orthogonalLoop=1;jettySize=auto;html=1;entryX=0.5;entryY=0;entryDx=0;entryDy=0;" parent="WIyWlLk6GJQsqaUBKTNV-1" source="4TRNi6pCDRtCIutJIhP7-94" target="4TRNi6pCDRtCIutJIhP7-96" edge="1">
          <mxGeometry relative="1" as="geometry" />
        </mxCell>
        <mxCell id="4TRNi6pCDRtCIutJIhP7-94" value="Do the contacts feel sunken (R/L/B) " style="rounded=1;whiteSpace=wrap;html=1;labelBackgroundColor=none;" parent="WIyWlLk6GJQsqaUBKTNV-1" vertex="1">
          <mxGeometry x="910" y="165" width="120" height="60" as="geometry" />
        </mxCell>
        <mxCell id="4TRNi6pCDRtCIutJIhP7-103" style="edgeStyle=orthogonalEdgeStyle;rounded=0;orthogonalLoop=1;jettySize=auto;html=1;labelBackgroundColor=none;fontColor=default;exitX=0.5;exitY=1;exitDx=0;exitDy=0;" parent="WIyWlLk6GJQsqaUBKTNV-1" source="4TRNi6pCDRtCIutJIhP7-96" edge="1">
          <mxGeometry relative="1" as="geometry">
            <mxPoint x="970" y="370" as="sourcePoint" />
            <mxPoint x="970" y="370" as="targetPoint" />
          </mxGeometry>
        </mxCell>
        <mxCell id="4TRNi6pCDRtCIutJIhP7-108" value="False or &#39;na&#39;" style="edgeLabel;html=1;align=center;verticalAlign=middle;resizable=0;points=[];labelBackgroundColor=none;" parent="4TRNi6pCDRtCIutJIhP7-103" vertex="1" connectable="0">
          <mxGeometry x="-0.35" y="4" relative="1" as="geometry">
            <mxPoint x="1" y="-5" as="offset" />
          </mxGeometry>
        </mxCell>
        <mxCell id="g3EVMuYso_FqyBGCc2nE-34" value="True" style="edgeStyle=orthogonalEdgeStyle;rounded=0;orthogonalLoop=1;jettySize=auto;html=1;entryX=0.5;entryY=0;entryDx=0;entryDy=0;" parent="WIyWlLk6GJQsqaUBKTNV-1" source="4TRNi6pCDRtCIutJIhP7-96" target="g3EVMuYso_FqyBGCc2nE-19" edge="1">
          <mxGeometry relative="1" as="geometry">
            <mxPoint x="1362" y="287.02" as="targetPoint" />
          </mxGeometry>
        </mxCell>
        <mxCell id="4TRNi6pCDRtCIutJIhP7-96" value="if resp" style="rhombus;whiteSpace=wrap;html=1;labelBackgroundColor=none;" parent="WIyWlLk6GJQsqaUBKTNV-1" vertex="1">
          <mxGeometry x="930" y="245" width="80" height="80" as="geometry" />
        </mxCell>
        <mxCell id="4TRNi6pCDRtCIutJIhP7-106" value="True" style="edgeStyle=orthogonalEdgeStyle;rounded=0;orthogonalLoop=1;jettySize=auto;html=1;entryX=0;entryY=0.5;entryDx=0;entryDy=0;labelBackgroundColor=none;fontColor=default;" parent="WIyWlLk6GJQsqaUBKTNV-1" source="4TRNi6pCDRtCIutJIhP7-101" target="4TRNi6pCDRtCIutJIhP7-104" edge="1">
          <mxGeometry relative="1" as="geometry" />
        </mxCell>
        <mxCell id="4TRNi6pCDRtCIutJIhP7-107" value="False" style="edgeStyle=orthogonalEdgeStyle;rounded=0;orthogonalLoop=1;jettySize=auto;html=1;entryX=0.5;entryY=0;entryDx=0;entryDy=0;labelBackgroundColor=none;fontColor=default;" parent="WIyWlLk6GJQsqaUBKTNV-1" source="4TRNi6pCDRtCIutJIhP7-101" target="YPjIWQZWxmA1oh4F8OOP-39" edge="1">
          <mxGeometry relative="1" as="geometry" />
        </mxCell>
        <mxCell id="4TRNi6pCDRtCIutJIhP7-101" value="if not is_mopper" style="rhombus;whiteSpace=wrap;html=1;labelBackgroundColor=none;" parent="WIyWlLk6GJQsqaUBKTNV-1" vertex="1">
          <mxGeometry x="920" y="570" width="110" height="80" as="geometry" />
        </mxCell>
        <mxCell id="4TRNi6pCDRtCIutJIhP7-110" style="edgeStyle=orthogonalEdgeStyle;rounded=0;orthogonalLoop=1;jettySize=auto;html=1;labelBackgroundColor=none;fontColor=default;" parent="WIyWlLk6GJQsqaUBKTNV-1" source="4TRNi6pCDRtCIutJIhP7-104" target="4TRNi6pCDRtCIutJIhP7-109" edge="1">
          <mxGeometry relative="1" as="geometry" />
        </mxCell>
        <mxCell id="4TRNi6pCDRtCIutJIhP7-104" value="Signs of liquid damage " style="rounded=1;whiteSpace=wrap;html=1;labelBackgroundColor=none;" parent="WIyWlLk6GJQsqaUBKTNV-1" vertex="1">
          <mxGeometry x="1105" y="545" width="120" height="60" as="geometry" />
        </mxCell>
        <mxCell id="4TRNi6pCDRtCIutJIhP7-119" value="False" style="edgeStyle=orthogonalEdgeStyle;rounded=0;orthogonalLoop=1;jettySize=auto;html=1;entryX=0.5;entryY=0;entryDx=0;entryDy=0;labelBackgroundColor=none;fontColor=default;exitX=0.5;exitY=1;exitDx=0;exitDy=0;" parent="WIyWlLk6GJQsqaUBKTNV-1" source="YPjIWQZWxmA1oh4F8OOP-41" target="YPjIWQZWxmA1oh4F8OOP-45" edge="1">
          <mxGeometry relative="1" as="geometry" />
        </mxCell>
        <mxCell id="YPjIWQZWxmA1oh4F8OOP-50" style="edgeStyle=orthogonalEdgeStyle;rounded=0;orthogonalLoop=1;jettySize=auto;html=1;entryX=1;entryY=0.5;entryDx=0;entryDy=0;" parent="WIyWlLk6GJQsqaUBKTNV-1" source="4TRNi6pCDRtCIutJIhP7-105" target="YPjIWQZWxmA1oh4F8OOP-45" edge="1">
          <mxGeometry relative="1" as="geometry">
            <Array as="points">
              <mxPoint x="1140" y="873" />
            </Array>
          </mxGeometry>
        </mxCell>
        <mxCell id="4TRNi6pCDRtCIutJIhP7-105" value="Play in blower motor, or doesn't spin freely " style="rounded=1;whiteSpace=wrap;html=1;labelBackgroundColor=none;" parent="WIyWlLk6GJQsqaUBKTNV-1" vertex="1">
          <mxGeometry x="1080" y="765" width="120" height="40" as="geometry" />
        </mxCell>
        <mxCell id="4TRNi6pCDRtCIutJIhP7-111" value="True" style="edgeStyle=orthogonalEdgeStyle;rounded=0;orthogonalLoop=1;jettySize=auto;html=1;labelBackgroundColor=none;fontColor=default;" parent="WIyWlLk6GJQsqaUBKTNV-1" source="4TRNi6pCDRtCIutJIhP7-109" edge="1">
          <mxGeometry relative="1" as="geometry">
            <mxPoint x="1315" y="725" as="targetPoint" />
          </mxGeometry>
        </mxCell>
        <mxCell id="4TRNi6pCDRtCIutJIhP7-114" value="False or &#39;na&#39;" style="edgeStyle=orthogonalEdgeStyle;rounded=0;orthogonalLoop=1;jettySize=auto;html=1;entryX=1;entryY=0.5;entryDx=0;entryDy=0;labelBackgroundColor=none;fontColor=default;" parent="WIyWlLk6GJQsqaUBKTNV-1" source="4TRNi6pCDRtCIutJIhP7-109" target="YPjIWQZWxmA1oh4F8OOP-39" edge="1">
          <mxGeometry x="-0.0526" y="-5" relative="1" as="geometry">
            <mxPoint as="offset" />
          </mxGeometry>
        </mxCell>
        <mxCell id="4TRNi6pCDRtCIutJIhP7-109" value="if resp" style="rhombus;whiteSpace=wrap;html=1;labelBackgroundColor=none;" parent="WIyWlLk6GJQsqaUBKTNV-1" vertex="1">
          <mxGeometry x="1125" y="685" width="80" height="80" as="geometry" />
        </mxCell>
        <mxCell id="4TRNi6pCDRtCIutJIhP7-163" style="edgeStyle=orthogonalEdgeStyle;rounded=0;orthogonalLoop=1;jettySize=auto;html=1;entryX=0.5;entryY=0;entryDx=0;entryDy=0;labelBackgroundColor=none;fontColor=default;" parent="WIyWlLk6GJQsqaUBKTNV-1" source="4TRNi6pCDRtCIutJIhP7-115" target="4TRNi6pCDRtCIutJIhP7-162" edge="1">
          <mxGeometry relative="1" as="geometry" />
        </mxCell>
        <mxCell id="4TRNi6pCDRtCIutJIhP7-177" style="edgeStyle=orthogonalEdgeStyle;rounded=0;orthogonalLoop=1;jettySize=auto;html=1;entryX=0;entryY=0.5;entryDx=0;entryDy=0;labelBackgroundColor=none;fontColor=default;" parent="WIyWlLk6GJQsqaUBKTNV-1" source="4TRNi6pCDRtCIutJIhP7-115" target="4TRNi6pCDRtCIutJIhP7-176" edge="1">
          <mxGeometry relative="1" as="geometry" />
        </mxCell>
        <mxCell id="4TRNi6pCDRtCIutJIhP7-115" value="Is there corrosion on the board or connections (specify or empty for no)" style="rounded=1;whiteSpace=wrap;html=1;labelBackgroundColor=none;" parent="WIyWlLk6GJQsqaUBKTNV-1" vertex="1">
          <mxGeometry x="1315" y="695" width="140" height="60" as="geometry" />
        </mxCell>
        <mxCell id="4TRNi6pCDRtCIutJIhP7-118" value="True" style="edgeStyle=orthogonalEdgeStyle;rounded=0;orthogonalLoop=1;jettySize=auto;html=1;entryX=0;entryY=0.5;entryDx=0;entryDy=0;labelBackgroundColor=none;fontColor=default;" parent="WIyWlLk6GJQsqaUBKTNV-1" source="4TRNi6pCDRtCIutJIhP7-116" target="4TRNi6pCDRtCIutJIhP7-117" edge="1">
          <mxGeometry relative="1" as="geometry" />
        </mxCell>
        <mxCell id="4TRNi6pCDRtCIutJIhP7-121" value="False" style="edgeStyle=orthogonalEdgeStyle;rounded=0;orthogonalLoop=1;jettySize=auto;html=1;entryX=0.5;entryY=0;entryDx=0;entryDy=0;labelBackgroundColor=none;fontColor=default;" parent="WIyWlLk6GJQsqaUBKTNV-1" source="4TRNi6pCDRtCIutJIhP7-116" target="4TRNi6pCDRtCIutJIhP7-120" edge="1">
          <mxGeometry relative="1" as="geometry" />
        </mxCell>
        <mxCell id="4TRNi6pCDRtCIutJIhP7-116" value="if is_combo" style="rhombus;whiteSpace=wrap;html=1;labelBackgroundColor=none;" parent="WIyWlLk6GJQsqaUBKTNV-1" vertex="1">
          <mxGeometry x="935" y="905" width="80" height="80" as="geometry" />
        </mxCell>
        <mxCell id="4TRNi6pCDRtCIutJIhP7-129" style="edgeStyle=orthogonalEdgeStyle;rounded=0;orthogonalLoop=1;jettySize=auto;html=1;entryX=1;entryY=0.5;entryDx=0;entryDy=0;labelBackgroundColor=none;fontColor=default;" parent="WIyWlLk6GJQsqaUBKTNV-1" source="4TRNi6pCDRtCIutJIhP7-117" target="4TRNi6pCDRtCIutJIhP7-120" edge="1">
          <mxGeometry relative="1" as="geometry">
            <Array as="points">
              <mxPoint x="1165" y="1060" />
            </Array>
          </mxGeometry>
        </mxCell>
        <mxCell id="4TRNi6pCDRtCIutJIhP7-117" value="Amount of rust on the tank screw " style="rounded=1;whiteSpace=wrap;html=1;labelBackgroundColor=none;" parent="WIyWlLk6GJQsqaUBKTNV-1" vertex="1">
          <mxGeometry x="1105" y="915" width="120" height="60" as="geometry" />
        </mxCell>
        <mxCell id="YPjIWQZWxmA1oh4F8OOP-34" style="edgeStyle=orthogonalEdgeStyle;rounded=0;orthogonalLoop=1;jettySize=auto;html=1;" parent="WIyWlLk6GJQsqaUBKTNV-1" source="4TRNi6pCDRtCIutJIhP7-120" target="YPjIWQZWxmA1oh4F8OOP-33" edge="1">
          <mxGeometry relative="1" as="geometry" />
        </mxCell>
        <mxCell id="4TRNi6pCDRtCIutJIhP7-120" value="" style="shape=hexagon;perimeter=hexagonPerimeter2;whiteSpace=wrap;html=1;fixedSize=1;labelBackgroundColor=none;" parent="WIyWlLk6GJQsqaUBKTNV-1" vertex="1">
          <mxGeometry x="915" y="1020" width="120" height="80" as="geometry" />
        </mxCell>
        <mxCell id="4TRNi6pCDRtCIutJIhP7-126" style="edgeStyle=orthogonalEdgeStyle;rounded=0;orthogonalLoop=1;jettySize=auto;html=1;entryX=0;entryY=0.5;entryDx=0;entryDy=0;labelBackgroundColor=none;fontColor=default;" parent="WIyWlLk6GJQsqaUBKTNV-1" source="4TRNi6pCDRtCIutJIhP7-122" target="4TRNi6pCDRtCIutJIhP7-124" edge="1">
          <mxGeometry relative="1" as="geometry" />
        </mxCell>
        <mxCell id="4TRNi6pCDRtCIutJIhP7-128" value="False" style="edgeStyle=orthogonalEdgeStyle;rounded=0;orthogonalLoop=1;jettySize=auto;html=1;entryX=0.5;entryY=0;entryDx=0;entryDy=0;labelBackgroundColor=none;fontColor=default;" parent="WIyWlLk6GJQsqaUBKTNV-1" source="4TRNi6pCDRtCIutJIhP7-122" target="fxsn1H21XU6vCMdtgkNi-19" edge="1">
          <mxGeometry relative="1" as="geometry" />
        </mxCell>
        <mxCell id="4TRNi6pCDRtCIutJIhP7-122" value="if S9" style="rhombus;whiteSpace=wrap;html=1;labelBackgroundColor=none;" parent="WIyWlLk6GJQsqaUBKTNV-1" vertex="1">
          <mxGeometry x="935" y="1250" width="80" height="80" as="geometry" />
        </mxCell>
        <mxCell id="4TRNi6pCDRtCIutJIhP7-127" value="True" style="edgeStyle=orthogonalEdgeStyle;rounded=0;orthogonalLoop=1;jettySize=auto;html=1;labelBackgroundColor=none;fontColor=default;" parent="WIyWlLk6GJQsqaUBKTNV-1" source="4TRNi6pCDRtCIutJIhP7-124" target="4TRNi6pCDRtCIutJIhP7-122" edge="1">
          <mxGeometry relative="1" as="geometry" />
        </mxCell>
        <mxCell id="4TRNi6pCDRtCIutJIhP7-130" style="edgeStyle=orthogonalEdgeStyle;rounded=0;orthogonalLoop=1;jettySize=auto;html=1;entryX=1;entryY=0.5;entryDx=0;entryDy=0;labelBackgroundColor=none;fontColor=default;" parent="WIyWlLk6GJQsqaUBKTNV-1" source="4TRNi6pCDRtCIutJIhP7-124" target="fxsn1H21XU6vCMdtgkNi-19" edge="1">
          <mxGeometry relative="1" as="geometry">
            <Array as="points">
              <mxPoint x="1165" y="1470" />
            </Array>
          </mxGeometry>
        </mxCell>
        <mxCell id="4TRNi6pCDRtCIutJIhP7-124" value="Are the lid pins sunken " style="rounded=1;whiteSpace=wrap;html=1;labelBackgroundColor=none;" parent="WIyWlLk6GJQsqaUBKTNV-1" vertex="1">
          <mxGeometry x="1105" y="1260" width="120" height="60" as="geometry" />
        </mxCell>
        <mxCell id="fxsn1H21XU6vCMdtgkNi-24" style="edgeStyle=orthogonalEdgeStyle;rounded=0;orthogonalLoop=1;jettySize=auto;html=1;" edge="1" parent="WIyWlLk6GJQsqaUBKTNV-1" source="4TRNi6pCDRtCIutJIhP7-125" target="fxsn1H21XU6vCMdtgkNi-21">
          <mxGeometry relative="1" as="geometry" />
        </mxCell>
        <mxCell id="4TRNi6pCDRtCIutJIhP7-125" value="Robot cleaned " style="rounded=1;whiteSpace=wrap;html=1;labelBackgroundColor=none;" parent="WIyWlLk6GJQsqaUBKTNV-1" vertex="1">
          <mxGeometry x="915" y="1605" width="120" height="60" as="geometry" />
        </mxCell>
        <mxCell id="4TRNi6pCDRtCIutJIhP7-136" style="edgeStyle=orthogonalEdgeStyle;rounded=0;orthogonalLoop=1;jettySize=auto;html=1;entryX=0.983;entryY=0.425;entryDx=0;entryDy=0;labelBackgroundColor=none;fontColor=default;entryPerimeter=0;" parent="WIyWlLk6GJQsqaUBKTNV-1" source="4TRNi6pCDRtCIutJIhP7-131" target="YPjIWQZWxmA1oh4F8OOP-57" edge="1">
          <mxGeometry relative="1" as="geometry" />
        </mxCell>
        <mxCell id="4TRNi6pCDRtCIutJIhP7-131" value="How do the extractors look " style="rounded=1;whiteSpace=wrap;html=1;labelBackgroundColor=none;" parent="WIyWlLk6GJQsqaUBKTNV-1" vertex="1">
          <mxGeometry x="1020" y="1760" width="120" height="60" as="geometry" />
        </mxCell>
        <mxCell id="4TRNi6pCDRtCIutJIhP7-150" style="edgeStyle=orthogonalEdgeStyle;rounded=0;orthogonalLoop=1;jettySize=auto;html=1;entryX=1;entryY=0.5;entryDx=0;entryDy=0;labelBackgroundColor=none;fontColor=default;" parent="WIyWlLk6GJQsqaUBKTNV-1" source="4TRNi6pCDRtCIutJIhP7-133" target="4TRNi6pCDRtCIutJIhP7-139" edge="1">
          <mxGeometry relative="1" as="geometry">
            <Array as="points">
              <mxPoint x="1185" y="1990" />
            </Array>
          </mxGeometry>
        </mxCell>
        <mxCell id="4TRNi6pCDRtCIutJIhP7-133" value="How do the Bot is charging  contacts on the customer base look " style="rounded=1;whiteSpace=wrap;html=1;labelBackgroundColor=none;" parent="WIyWlLk6GJQsqaUBKTNV-1" vertex="1">
          <mxGeometry x="1105" y="1840" width="160" height="60" as="geometry" />
        </mxCell>
        <mxCell id="4TRNi6pCDRtCIutJIhP7-135" value="True" style="edgeStyle=orthogonalEdgeStyle;rounded=0;orthogonalLoop=1;jettySize=auto;html=1;entryX=0;entryY=0.5;entryDx=0;entryDy=0;labelBackgroundColor=none;fontColor=default;" parent="WIyWlLk6GJQsqaUBKTNV-1" source="4TRNi6pCDRtCIutJIhP7-134" target="4TRNi6pCDRtCIutJIhP7-133" edge="1">
          <mxGeometry relative="1" as="geometry" />
        </mxCell>
        <mxCell id="4TRNi6pCDRtCIutJIhP7-138" value="False" style="edgeStyle=orthogonalEdgeStyle;rounded=0;orthogonalLoop=1;jettySize=auto;html=1;entryX=0.5;entryY=0;entryDx=0;entryDy=0;labelBackgroundColor=none;fontColor=default;" parent="WIyWlLk6GJQsqaUBKTNV-1" source="4TRNi6pCDRtCIutJIhP7-134" edge="1">
          <mxGeometry relative="1" as="geometry">
            <mxPoint x="975" y="1950" as="targetPoint" />
          </mxGeometry>
        </mxCell>
        <mxCell id="4TRNi6pCDRtCIutJIhP7-134" value="if dock" style="rhombus;whiteSpace=wrap;html=1;labelBackgroundColor=none;" parent="WIyWlLk6GJQsqaUBKTNV-1" vertex="1">
          <mxGeometry x="935" y="1830" width="80" height="80" as="geometry" />
        </mxCell>
        <mxCell id="4TRNi6pCDRtCIutJIhP7-149" style="edgeStyle=orthogonalEdgeStyle;rounded=0;orthogonalLoop=1;jettySize=auto;html=1;entryX=0.5;entryY=0;entryDx=0;entryDy=0;labelBackgroundColor=none;fontColor=default;" parent="WIyWlLk6GJQsqaUBKTNV-1" source="4TRNi6pCDRtCIutJIhP7-139" target="4TRNi6pCDRtCIutJIhP7-140" edge="1">
          <mxGeometry relative="1" as="geometry" />
        </mxCell>
        <mxCell id="4TRNi6pCDRtCIutJIhP7-139" value="" style="shape=hexagon;perimeter=hexagonPerimeter2;whiteSpace=wrap;html=1;fixedSize=1;labelBackgroundColor=none;" parent="WIyWlLk6GJQsqaUBKTNV-1" vertex="1">
          <mxGeometry x="915" y="1950" width="120" height="80" as="geometry" />
        </mxCell>
        <mxCell id="4TRNi6pCDRtCIutJIhP7-142" value="True" style="edgeStyle=orthogonalEdgeStyle;rounded=0;orthogonalLoop=1;jettySize=auto;html=1;entryX=0;entryY=0.5;entryDx=0;entryDy=0;labelBackgroundColor=none;fontColor=default;" parent="WIyWlLk6GJQsqaUBKTNV-1" source="4TRNi6pCDRtCIutJIhP7-140" target="4TRNi6pCDRtCIutJIhP7-141" edge="1">
          <mxGeometry relative="1" as="geometry" />
        </mxCell>
        <mxCell id="YPjIWQZWxmA1oh4F8OOP-21" value="False" style="edgeStyle=orthogonalEdgeStyle;rounded=0;orthogonalLoop=1;jettySize=auto;html=1;entryX=0.5;entryY=0;entryDx=0;entryDy=0;" parent="WIyWlLk6GJQsqaUBKTNV-1" source="4TRNi6pCDRtCIutJIhP7-140" target="YPjIWQZWxmA1oh4F8OOP-20" edge="1">
          <mxGeometry relative="1" as="geometry">
            <Array as="points">
              <mxPoint x="779" y="2120" />
            </Array>
          </mxGeometry>
        </mxCell>
        <mxCell id="4TRNi6pCDRtCIutJIhP7-140" value="if needs_Battery test (don't forget the traveler) " style="rhombus;whiteSpace=wrap;html=1;labelBackgroundColor=none;" parent="WIyWlLk6GJQsqaUBKTNV-1" vertex="1">
          <mxGeometry x="840" y="2080" width="270" height="80" as="geometry" />
        </mxCell>
        <mxCell id="4TRNi6pCDRtCIutJIhP7-141" value="Battery test (don't forget the traveler) " style="rounded=1;whiteSpace=wrap;html=1;labelBackgroundColor=none;" parent="WIyWlLk6GJQsqaUBKTNV-1" vertex="1">
          <mxGeometry x="1175" y="2090" width="120" height="60" as="geometry" />
        </mxCell>
        <mxCell id="4TRNi6pCDRtCIutJIhP7-147" value="True" style="edgeStyle=orthogonalEdgeStyle;rounded=0;orthogonalLoop=1;jettySize=auto;html=1;entryX=0;entryY=0.5;entryDx=0;entryDy=0;labelBackgroundColor=none;fontColor=default;" parent="WIyWlLk6GJQsqaUBKTNV-1" source="4TRNi6pCDRtCIutJIhP7-143" target="4TRNi6pCDRtCIutJIhP7-145" edge="1">
          <mxGeometry relative="1" as="geometry">
            <Array as="points">
              <mxPoint x="1075" y="2260" />
              <mxPoint x="1075" y="2350" />
            </Array>
          </mxGeometry>
        </mxCell>
        <mxCell id="4TRNi6pCDRtCIutJIhP7-148" value="False" style="edgeStyle=orthogonalEdgeStyle;rounded=0;orthogonalLoop=1;jettySize=auto;html=1;entryX=0.5;entryY=0;entryDx=0;entryDy=0;labelBackgroundColor=none;fontColor=default;" parent="WIyWlLk6GJQsqaUBKTNV-1" source="4TRNi6pCDRtCIutJIhP7-143" target="4TRNi6pCDRtCIutJIhP7-146" edge="1">
          <mxGeometry relative="1" as="geometry" />
        </mxCell>
        <mxCell id="4TRNi6pCDRtCIutJIhP7-143" value="if dock" style="rhombus;whiteSpace=wrap;html=1;labelBackgroundColor=none;" parent="WIyWlLk6GJQsqaUBKTNV-1" vertex="1">
          <mxGeometry x="935" y="2200" width="80" height="80" as="geometry" />
        </mxCell>
        <mxCell id="4TRNi6pCDRtCIutJIhP7-161" style="edgeStyle=orthogonalEdgeStyle;rounded=0;orthogonalLoop=1;jettySize=auto;html=1;entryX=1;entryY=0.5;entryDx=0;entryDy=0;labelBackgroundColor=none;fontColor=default;" parent="WIyWlLk6GJQsqaUBKTNV-1" source="4TRNi6pCDRtCIutJIhP7-145" edge="1">
          <mxGeometry relative="1" as="geometry">
            <Array as="points">
              <mxPoint x="1225" y="2500" />
            </Array>
            <mxPoint x="1035" y="2500" as="targetPoint" />
          </mxGeometry>
        </mxCell>
        <mxCell id="4TRNi6pCDRtCIutJIhP7-145" value="What's the Bot is charging  wattage on the customer's dock " style="rounded=1;whiteSpace=wrap;html=1;labelBackgroundColor=none;" parent="WIyWlLk6GJQsqaUBKTNV-1" vertex="1">
          <mxGeometry x="1135" y="2320" width="180" height="60" as="geometry" />
        </mxCell>
        <mxCell id="4TRNi6pCDRtCIutJIhP7-160" value="False" style="edgeStyle=orthogonalEdgeStyle;rounded=0;orthogonalLoop=1;jettySize=auto;html=1;entryX=0.5;entryY=0;entryDx=0;entryDy=0;labelBackgroundColor=none;fontColor=default;exitX=0.5;exitY=1;exitDx=0;exitDy=0;" parent="WIyWlLk6GJQsqaUBKTNV-1" source="3pm61Zj5QoI2iHKxV5r9-20" target="4TRNi6pCDRtCIutJIhP7-159" edge="1">
          <mxGeometry relative="1" as="geometry">
            <mxPoint x="975" y="2530" as="sourcePoint" />
          </mxGeometry>
        </mxCell>
        <mxCell id="4TRNi6pCDRtCIutJIhP7-146" value="What's the Bot is charging  wattage on a test base " style="rounded=1;whiteSpace=wrap;html=1;labelBackgroundColor=none;" parent="WIyWlLk6GJQsqaUBKTNV-1" vertex="1">
          <mxGeometry x="905" y="2320" width="140" height="60" as="geometry" />
        </mxCell>
        <mxCell id="4TRNi6pCDRtCIutJIhP7-159" value="Debugging" style="ellipse;whiteSpace=wrap;html=1;labelBackgroundColor=none;" parent="WIyWlLk6GJQsqaUBKTNV-1" vertex="1">
          <mxGeometry x="935" y="2760" width="90" height="50" as="geometry" />
        </mxCell>
        <mxCell id="4TRNi6pCDRtCIutJIhP7-167" style="edgeStyle=orthogonalEdgeStyle;rounded=0;orthogonalLoop=1;jettySize=auto;html=1;entryX=0.5;entryY=0;entryDx=0;entryDy=0;labelBackgroundColor=none;fontColor=default;" parent="WIyWlLk6GJQsqaUBKTNV-1" source="4TRNi6pCDRtCIutJIhP7-162" target="4TRNi6pCDRtCIutJIhP7-164" edge="1">
          <mxGeometry relative="1" as="geometry" />
        </mxCell>
        <mxCell id="4TRNi6pCDRtCIutJIhP7-162" value="" style="shape=hexagon;perimeter=hexagonPerimeter2;whiteSpace=wrap;html=1;fixedSize=1;labelBackgroundColor=none;" parent="WIyWlLk6GJQsqaUBKTNV-1" vertex="1">
          <mxGeometry x="1310" y="805" width="150" height="80" as="geometry" />
        </mxCell>
        <mxCell id="4TRNi6pCDRtCIutJIhP7-168" value="True" style="edgeStyle=orthogonalEdgeStyle;rounded=0;orthogonalLoop=1;jettySize=auto;html=1;entryX=0;entryY=0.5;entryDx=0;entryDy=0;labelBackgroundColor=none;fontColor=default;" parent="WIyWlLk6GJQsqaUBKTNV-1" source="4TRNi6pCDRtCIutJIhP7-164" target="4TRNi6pCDRtCIutJIhP7-165" edge="1">
          <mxGeometry relative="1" as="geometry" />
        </mxCell>
        <mxCell id="4TRNi6pCDRtCIutJIhP7-169" value="False" style="edgeStyle=orthogonalEdgeStyle;rounded=0;orthogonalLoop=1;jettySize=auto;html=1;entryX=0.5;entryY=0;entryDx=0;entryDy=0;labelBackgroundColor=none;fontColor=default;" parent="WIyWlLk6GJQsqaUBKTNV-1" source="4TRNi6pCDRtCIutJIhP7-164" target="4TRNi6pCDRtCIutJIhP7-166" edge="1">
          <mxGeometry relative="1" as="geometry" />
        </mxCell>
        <mxCell id="4TRNi6pCDRtCIutJIhP7-164" value="if dock" style="rhombus;whiteSpace=wrap;html=1;labelBackgroundColor=none;" parent="WIyWlLk6GJQsqaUBKTNV-1" vertex="1">
          <mxGeometry x="1345" y="925" width="80" height="80" as="geometry" />
        </mxCell>
        <mxCell id="4TRNi6pCDRtCIutJIhP7-170" style="edgeStyle=orthogonalEdgeStyle;rounded=0;orthogonalLoop=1;jettySize=auto;html=1;entryX=1;entryY=0.5;entryDx=0;entryDy=0;labelBackgroundColor=none;fontColor=default;" parent="WIyWlLk6GJQsqaUBKTNV-1" source="4TRNi6pCDRtCIutJIhP7-165" target="4TRNi6pCDRtCIutJIhP7-166" edge="1">
          <mxGeometry relative="1" as="geometry">
            <Array as="points">
              <mxPoint x="1535" y="1085" />
            </Array>
          </mxGeometry>
        </mxCell>
        <mxCell id="4TRNi6pCDRtCIutJIhP7-165" value="Is there liquid residue in the customer dock " style="rounded=1;whiteSpace=wrap;html=1;labelBackgroundColor=none;" parent="WIyWlLk6GJQsqaUBKTNV-1" vertex="1">
          <mxGeometry x="1475" y="935" width="120" height="60" as="geometry" />
        </mxCell>
        <mxCell id="4TRNi6pCDRtCIutJIhP7-173" style="edgeStyle=orthogonalEdgeStyle;rounded=0;orthogonalLoop=1;jettySize=auto;html=1;entryX=0.5;entryY=0;entryDx=0;entryDy=0;labelBackgroundColor=none;fontColor=default;" parent="WIyWlLk6GJQsqaUBKTNV-1" source="pwLWd-mjAGraBpHTUjHC-24" target="4TRNi6pCDRtCIutJIhP7-171" edge="1">
          <mxGeometry relative="1" as="geometry" />
        </mxCell>
        <mxCell id="4TRNi6pCDRtCIutJIhP7-166" value="Is there liquid residue in the robot bin " style="rounded=1;whiteSpace=wrap;html=1;labelBackgroundColor=none;" parent="WIyWlLk6GJQsqaUBKTNV-1" vertex="1">
          <mxGeometry x="1325" y="1055" width="120" height="60" as="geometry" />
        </mxCell>
        <mxCell id="4TRNi6pCDRtCIutJIhP7-181" style="edgeStyle=orthogonalEdgeStyle;rounded=0;orthogonalLoop=1;jettySize=auto;html=1;labelBackgroundColor=none;fontColor=default;" parent="WIyWlLk6GJQsqaUBKTNV-1" source="4TRNi6pCDRtCIutJIhP7-171" target="4TRNi6pCDRtCIutJIhP7-180" edge="1">
          <mxGeometry relative="1" as="geometry" />
        </mxCell>
        <mxCell id="YPjIWQZWxmA1oh4F8OOP-32" value="" style="edgeStyle=orthogonalEdgeStyle;rounded=0;orthogonalLoop=1;jettySize=auto;html=1;" parent="WIyWlLk6GJQsqaUBKTNV-1" source="4TRNi6pCDRtCIutJIhP7-171" target="YPjIWQZWxmA1oh4F8OOP-31" edge="1">
          <mxGeometry relative="1" as="geometry" />
        </mxCell>
        <mxCell id="N_G4AyvHokrERCju8nTB-3" value="False" style="edgeStyle=orthogonalEdgeStyle;rounded=0;orthogonalLoop=1;jettySize=auto;html=1;entryX=0;entryY=0.5;entryDx=0;entryDy=0;exitX=0;exitY=0.5;exitDx=0;exitDy=0;" parent="WIyWlLk6GJQsqaUBKTNV-1" source="4TRNi6pCDRtCIutJIhP7-171" target="YPjIWQZWxmA1oh4F8OOP-39" edge="1">
          <mxGeometry x="-0.9271" y="-10" relative="1" as="geometry">
            <mxPoint x="900" y="780" as="targetPoint" />
            <Array as="points">
              <mxPoint x="1270" y="1410" />
              <mxPoint x="1270" y="1220" />
              <mxPoint x="890" y="1220" />
              <mxPoint x="890" y="725" />
            </Array>
            <mxPoint as="offset" />
          </mxGeometry>
        </mxCell>
        <mxCell id="4TRNi6pCDRtCIutJIhP7-171" value="Take pictures of liquid residue" style="rounded=1;whiteSpace=wrap;html=1;labelBackgroundColor=none;" parent="WIyWlLk6GJQsqaUBKTNV-1" vertex="1">
          <mxGeometry x="1325" y="1380" width="120" height="60" as="geometry" />
        </mxCell>
        <mxCell id="4TRNi6pCDRtCIutJIhP7-174" value="_liquid_swap = True" style="ellipse;shape=cloud;whiteSpace=wrap;html=1;labelBackgroundColor=none;" parent="WIyWlLk6GJQsqaUBKTNV-1" vertex="1">
          <mxGeometry x="1615" y="690" width="170" height="80" as="geometry" />
        </mxCell>
        <mxCell id="4TRNi6pCDRtCIutJIhP7-179" style="edgeStyle=orthogonalEdgeStyle;rounded=0;orthogonalLoop=1;jettySize=auto;html=1;entryX=1;entryY=0.5;entryDx=0;entryDy=0;labelBackgroundColor=none;fontColor=default;" parent="WIyWlLk6GJQsqaUBKTNV-1" source="4TRNi6pCDRtCIutJIhP7-176" target="4TRNi6pCDRtCIutJIhP7-162" edge="1">
          <mxGeometry relative="1" as="geometry">
            <Array as="points">
              <mxPoint x="1535" y="845" />
            </Array>
          </mxGeometry>
        </mxCell>
        <mxCell id="4TRNi6pCDRtCIutJIhP7-176" value="if resp" style="rhombus;whiteSpace=wrap;html=1;labelBackgroundColor=none;" parent="WIyWlLk6GJQsqaUBKTNV-1" vertex="1">
          <mxGeometry x="1495" y="685" width="80" height="80" as="geometry" />
        </mxCell>
        <mxCell id="4TRNi6pCDRtCIutJIhP7-178" value="True" style="edgeStyle=orthogonalEdgeStyle;rounded=0;orthogonalLoop=1;jettySize=auto;html=1;entryX=0.07;entryY=0.4;entryDx=0;entryDy=0;entryPerimeter=0;labelBackgroundColor=none;fontColor=default;" parent="WIyWlLk6GJQsqaUBKTNV-1" source="4TRNi6pCDRtCIutJIhP7-176" target="4TRNi6pCDRtCIutJIhP7-174" edge="1">
          <mxGeometry relative="1" as="geometry" />
        </mxCell>
        <mxCell id="4TRNi6pCDRtCIutJIhP7-183" value="True" style="edgeStyle=orthogonalEdgeStyle;rounded=0;orthogonalLoop=1;jettySize=auto;html=1;labelBackgroundColor=none;fontColor=default;" parent="WIyWlLk6GJQsqaUBKTNV-1" source="4TRNi6pCDRtCIutJIhP7-180" edge="1">
          <mxGeometry relative="1" as="geometry">
            <mxPoint x="1515" y="1530" as="targetPoint" />
          </mxGeometry>
        </mxCell>
        <mxCell id="4TRNi6pCDRtCIutJIhP7-180" value="if _liquid_swap" style="rhombus;whiteSpace=wrap;html=1;labelBackgroundColor=none;" parent="WIyWlLk6GJQsqaUBKTNV-1" vertex="1">
          <mxGeometry x="1325" y="1490" width="120" height="80" as="geometry" />
        </mxCell>
        <mxCell id="4TRNi6pCDRtCIutJIhP7-184" value="Swap" style="ellipse;whiteSpace=wrap;html=1;labelBackgroundColor=none;" parent="WIyWlLk6GJQsqaUBKTNV-1" vertex="1">
          <mxGeometry x="1515" y="1490" width="120" height="80" as="geometry" />
        </mxCell>
        <mxCell id="4TRNi6pCDRtCIutJIhP7-189" style="edgeStyle=orthogonalEdgeStyle;rounded=0;orthogonalLoop=1;jettySize=auto;html=1;entryX=0.5;entryY=0;entryDx=0;entryDy=0;labelBackgroundColor=none;fontColor=default;" parent="WIyWlLk6GJQsqaUBKTNV-1" source="4TRNi6pCDRtCIutJIhP7-187" target="4TRNi6pCDRtCIutJIhP7-188" edge="1">
          <mxGeometry relative="1" as="geometry" />
        </mxCell>
        <mxCell id="4TRNi6pCDRtCIutJIhP7-187" value="Debugging" style="ellipse;whiteSpace=wrap;html=1;labelBackgroundColor=none;" parent="WIyWlLk6GJQsqaUBKTNV-1" vertex="1">
          <mxGeometry x="1940" y="30" width="120" height="80" as="geometry" />
        </mxCell>
        <mxCell id="4TRNi6pCDRtCIutJIhP7-188" value="Add Step" style="rounded=1;whiteSpace=wrap;html=1;labelBackgroundColor=none;" parent="WIyWlLk6GJQsqaUBKTNV-1" vertex="1">
          <mxGeometry x="1940" y="165" width="120" height="60" as="geometry" />
        </mxCell>
        <mxCell id="4TRNi6pCDRtCIutJIhP7-190" style="edgeStyle=orthogonalEdgeStyle;rounded=0;orthogonalLoop=1;jettySize=auto;html=1;labelBackgroundColor=none;fontColor=default;" parent="WIyWlLk6GJQsqaUBKTNV-1" source="4TRNi6pCDRtCIutJIhP7-188" target="4TRNi6pCDRtCIutJIhP7-188" edge="1">
          <mxGeometry relative="1" as="geometry" />
        </mxCell>
        <mxCell id="3pm61Zj5QoI2iHKxV5r9-9" value="" style="edgeStyle=orthogonalEdgeStyle;rounded=0;orthogonalLoop=1;jettySize=auto;html=1;" parent="WIyWlLk6GJQsqaUBKTNV-1" source="4TRNi6pCDRtCIutJIhP7-191" target="3pm61Zj5QoI2iHKxV5r9-8" edge="1">
          <mxGeometry relative="1" as="geometry" />
        </mxCell>
        <mxCell id="4TRNi6pCDRtCIutJIhP7-191" value="Swap" style="ellipse;whiteSpace=wrap;html=1;labelBackgroundColor=none;" parent="WIyWlLk6GJQsqaUBKTNV-1" vertex="1">
          <mxGeometry x="2300" y="30" width="120" height="80" as="geometry" />
        </mxCell>
        <mxCell id="4TRNi6pCDRtCIutJIhP7-192" value="All done! " style="rounded=1;whiteSpace=wrap;html=1;labelBackgroundColor=none;" parent="WIyWlLk6GJQsqaUBKTNV-1" vertex="1">
          <mxGeometry x="85" y="3607.5" width="120" height="60" as="geometry" />
        </mxCell>
        <mxCell id="Y3o4zUVy-MV-adPHcKIv-1" style="edgeStyle=orthogonalEdgeStyle;rounded=0;orthogonalLoop=1;jettySize=auto;html=1;labelBackgroundColor=none;fontColor=default;entryX=0.5;entryY=0;entryDx=0;entryDy=0;" parent="WIyWlLk6GJQsqaUBKTNV-1" source="4TRNi6pCDRtCIutJIhP7-82" target="RLRDXqjsHfM8Xnnao1ib-9" edge="1">
          <mxGeometry relative="1" as="geometry" />
        </mxCell>
        <mxCell id="Y3o4zUVy-MV-adPHcKIv-0" value="Go pick up the case on CSS  " style="rounded=1;whiteSpace=wrap;html=1;labelBackgroundColor=none;" parent="WIyWlLk6GJQsqaUBKTNV-1" vertex="1">
          <mxGeometry x="540" y="140" width="120" height="60" as="geometry" />
        </mxCell>
        <mxCell id="Y3o4zUVy-MV-adPHcKIv-5" style="edgeStyle=orthogonalEdgeStyle;rounded=0;orthogonalLoop=1;jettySize=auto;html=1;entryX=0.5;entryY=0;entryDx=0;entryDy=0;labelBackgroundColor=none;fontColor=default;" parent="WIyWlLk6GJQsqaUBKTNV-1" source="Y3o4zUVy-MV-adPHcKIv-3" target="4TRNi6pCDRtCIutJIhP7-91" edge="1">
          <mxGeometry relative="1" as="geometry" />
        </mxCell>
        <mxCell id="Y3o4zUVy-MV-adPHcKIv-3" value="Update the CSS failure box " style="rounded=1;whiteSpace=wrap;html=1;labelBackgroundColor=none;" parent="WIyWlLk6GJQsqaUBKTNV-1" vertex="1">
          <mxGeometry x="540" y="1361.25" width="120" height="60" as="geometry" />
        </mxCell>
        <mxCell id="g3EVMuYso_FqyBGCc2nE-9" value="False" style="edgeStyle=none;curved=1;rounded=0;orthogonalLoop=1;jettySize=auto;html=1;entryX=0.5;entryY=0;entryDx=0;entryDy=0;fontSize=12;startSize=8;endSize=8;labelBackgroundColor=none;fontColor=default;" parent="WIyWlLk6GJQsqaUBKTNV-1" source="pwLWd-mjAGraBpHTUjHC-19" target="3pm61Zj5QoI2iHKxV5r9-14" edge="1">
          <mxGeometry relative="1" as="geometry" />
        </mxCell>
        <mxCell id="Y3o4zUVy-MV-adPHcKIv-6" value="Send swap email  " style="rounded=1;whiteSpace=wrap;html=1;labelBackgroundColor=none;" parent="WIyWlLk6GJQsqaUBKTNV-1" vertex="1">
          <mxGeometry x="2300" y="480" width="120" height="60" as="geometry" />
        </mxCell>
        <mxCell id="g3EVMuYso_FqyBGCc2nE-3" style="edgeStyle=none;curved=1;rounded=0;orthogonalLoop=1;jettySize=auto;html=1;entryX=0.5;entryY=0;entryDx=0;entryDy=0;fontSize=12;startSize=8;endSize=8;labelBackgroundColor=none;fontColor=default;" parent="WIyWlLk6GJQsqaUBKTNV-1" source="Y3o4zUVy-MV-adPHcKIv-7" target="g3EVMuYso_FqyBGCc2nE-2" edge="1">
          <mxGeometry relative="1" as="geometry" />
        </mxCell>
        <mxCell id="Y3o4zUVy-MV-adPHcKIv-7" value="Unuse all parts and get out of the case " style="rounded=1;whiteSpace=wrap;html=1;labelBackgroundColor=none;" parent="WIyWlLk6GJQsqaUBKTNV-1" vertex="1">
          <mxGeometry x="2300" y="290" width="120" height="60" as="geometry" />
        </mxCell>
        <mxCell id="Y3o4zUVy-MV-adPHcKIv-14" style="edgeStyle=orthogonalEdgeStyle;rounded=0;orthogonalLoop=1;jettySize=auto;html=1;entryX=0.5;entryY=0;entryDx=0;entryDy=0;labelBackgroundColor=none;fontColor=default;" parent="WIyWlLk6GJQsqaUBKTNV-1" source="Y3o4zUVy-MV-adPHcKIv-8" target="Y3o4zUVy-MV-adPHcKIv-9" edge="1">
          <mxGeometry relative="1" as="geometry" />
        </mxCell>
        <mxCell id="Y3o4zUVy-MV-adPHcKIv-8" value="Reload case and order swap  ('out' if out of stock)" style="rounded=1;whiteSpace=wrap;html=1;labelBackgroundColor=none;" parent="WIyWlLk6GJQsqaUBKTNV-1" vertex="1">
          <mxGeometry x="2300" y="1015" width="120" height="60" as="geometry" />
        </mxCell>
        <mxCell id="3pm61Zj5QoI2iHKxV5r9-38" value="" style="edgeStyle=orthogonalEdgeStyle;rounded=0;orthogonalLoop=1;jettySize=auto;html=1;" parent="WIyWlLk6GJQsqaUBKTNV-1" source="Y3o4zUVy-MV-adPHcKIv-9" target="RLRDXqjsHfM8Xnnao1ib-0" edge="1">
          <mxGeometry relative="1" as="geometry" />
        </mxCell>
        <mxCell id="Y3o4zUVy-MV-adPHcKIv-9" value="Unbox and move bin and battery over ('fb', 'new', 'cx', or empty) " style="rounded=1;whiteSpace=wrap;html=1;labelBackgroundColor=none;" parent="WIyWlLk6GJQsqaUBKTNV-1" vertex="1">
          <mxGeometry x="2300" y="1120" width="120" height="60" as="geometry" />
        </mxCell>
        <mxCell id="Y3o4zUVy-MV-adPHcKIv-17" style="edgeStyle=orthogonalEdgeStyle;rounded=0;orthogonalLoop=1;jettySize=auto;html=1;entryX=0.5;entryY=0;entryDx=0;entryDy=0;labelBackgroundColor=none;fontColor=default;" parent="WIyWlLk6GJQsqaUBKTNV-1" source="Y3o4zUVy-MV-adPHcKIv-10" target="Y3o4zUVy-MV-adPHcKIv-16" edge="1">
          <mxGeometry relative="1" as="geometry" />
        </mxCell>
        <mxCell id="Y3o4zUVy-MV-adPHcKIv-10" value="Put the new serial number into CSS  " style="rounded=1;whiteSpace=wrap;html=1;labelBackgroundColor=none;" parent="WIyWlLk6GJQsqaUBKTNV-1" vertex="1">
          <mxGeometry x="2300" y="1545" width="120" height="60" as="geometry" />
        </mxCell>
        <mxCell id="Y3o4zUVy-MV-adPHcKIv-16" value="Debugging" style="ellipse;whiteSpace=wrap;html=1;labelBackgroundColor=none;" parent="WIyWlLk6GJQsqaUBKTNV-1" vertex="1">
          <mxGeometry x="2300" y="1650" width="120" height="80" as="geometry" />
        </mxCell>
        <mxCell id="pERgeG-NBUjvUuYuyOd--10" value="" style="edgeStyle=orthogonalEdgeStyle;rounded=0;orthogonalLoop=1;jettySize=auto;html=1;" parent="WIyWlLk6GJQsqaUBKTNV-1" source="SEcOQ4zRB9NBcKpOXhuR-15" target="pERgeG-NBUjvUuYuyOd--9" edge="1">
          <mxGeometry relative="1" as="geometry" />
        </mxCell>
        <mxCell id="g3EVMuYso_FqyBGCc2nE-0" value="if dock in (&#39;Aurora&#39;, &#39;Boulder&#39;)" style="rhombus;whiteSpace=wrap;html=1;labelBackgroundColor=none;" parent="WIyWlLk6GJQsqaUBKTNV-1" vertex="1">
          <mxGeometry x="240" y="1301.25" width="180" height="80" as="geometry" />
        </mxCell>
        <mxCell id="g3EVMuYso_FqyBGCc2nE-4" style="edgeStyle=none;curved=1;rounded=0;orthogonalLoop=1;jettySize=auto;html=1;entryX=0.5;entryY=0;entryDx=0;entryDy=0;fontSize=12;startSize=8;endSize=8;labelBackgroundColor=none;fontColor=default;" parent="WIyWlLk6GJQsqaUBKTNV-1" source="g3EVMuYso_FqyBGCc2nE-2" target="Y3o4zUVy-MV-adPHcKIv-6" edge="1">
          <mxGeometry relative="1" as="geometry" />
        </mxCell>
        <mxCell id="g3EVMuYso_FqyBGCc2nE-2" value="Update CSS repair action and copy notes over  " style="rounded=1;whiteSpace=wrap;html=1;labelBackgroundColor=none;" parent="WIyWlLk6GJQsqaUBKTNV-1" vertex="1">
          <mxGeometry x="2300" y="380" width="120" height="60" as="geometry" />
        </mxCell>
        <mxCell id="g3EVMuYso_FqyBGCc2nE-5" value="Copy notes over to CSS  " style="rounded=1;whiteSpace=wrap;html=1;labelBackgroundColor=none;" parent="WIyWlLk6GJQsqaUBKTNV-1" vertex="1">
          <mxGeometry x="65" y="2590" width="150" height="60" as="geometry" />
        </mxCell>
        <mxCell id="g3EVMuYso_FqyBGCc2nE-10" value="False" style="edgeStyle=none;curved=1;rounded=0;orthogonalLoop=1;jettySize=auto;html=1;entryX=0.5;entryY=0;entryDx=0;entryDy=0;fontSize=12;startSize=8;endSize=8;labelBackgroundColor=none;fontColor=default;" parent="WIyWlLk6GJQsqaUBKTNV-1" source="g3EVMuYso_FqyBGCc2nE-8" target="g3EVMuYso_FqyBGCc2nE-69" edge="1">
          <mxGeometry relative="1" as="geometry" />
        </mxCell>
        <mxCell id="g3EVMuYso_FqyBGCc2nE-16" value="True" style="edgeStyle=orthogonalEdgeStyle;rounded=0;orthogonalLoop=1;jettySize=auto;html=1;entryX=0.5;entryY=0;entryDx=0;entryDy=0;labelBackgroundColor=none;fontColor=default;" parent="WIyWlLk6GJQsqaUBKTNV-1" source="g3EVMuYso_FqyBGCc2nE-8" target="g3EVMuYso_FqyBGCc2nE-12" edge="1">
          <mxGeometry x="-0.8644" y="10" relative="1" as="geometry">
            <mxPoint as="offset" />
          </mxGeometry>
        </mxCell>
        <mxCell id="g3EVMuYso_FqyBGCc2nE-8" value="if s9" style="rhombus;whiteSpace=wrap;html=1;labelBackgroundColor=none;" parent="WIyWlLk6GJQsqaUBKTNV-1" vertex="1">
          <mxGeometry x="2320" y="780" width="80" height="80" as="geometry" />
        </mxCell>
        <mxCell id="g3EVMuYso_FqyBGCc2nE-18" style="edgeStyle=orthogonalEdgeStyle;rounded=0;orthogonalLoop=1;jettySize=auto;html=1;labelBackgroundColor=none;fontColor=default;" parent="WIyWlLk6GJQsqaUBKTNV-1" source="g3EVMuYso_FqyBGCc2nE-12" edge="1">
          <mxGeometry relative="1" as="geometry">
            <mxPoint x="2423" y="1300" as="targetPoint" />
            <Array as="points">
              <mxPoint x="2670" y="1300" />
            </Array>
          </mxGeometry>
        </mxCell>
        <mxCell id="g3EVMuYso_FqyBGCc2nE-12" value="Reload case and order swap  ('out' if out of stock)_S9" style="rounded=1;whiteSpace=wrap;html=1;labelBackgroundColor=none;" parent="WIyWlLk6GJQsqaUBKTNV-1" vertex="1">
          <mxGeometry x="2610" y="1010" width="120" height="60" as="geometry" />
        </mxCell>
        <mxCell id="g3EVMuYso_FqyBGCc2nE-22" style="edgeStyle=orthogonalEdgeStyle;rounded=0;orthogonalLoop=1;jettySize=auto;html=1;entryX=0.5;entryY=0;entryDx=0;entryDy=0;labelBackgroundColor=none;fontColor=default;" parent="WIyWlLk6GJQsqaUBKTNV-1" source="g3EVMuYso_FqyBGCc2nE-19" target="g3EVMuYso_FqyBGCc2nE-21" edge="1">
          <mxGeometry relative="1" as="geometry" />
        </mxCell>
        <mxCell id="YPjIWQZWxmA1oh4F8OOP-18" value="Both" style="edgeStyle=orthogonalEdgeStyle;rounded=0;orthogonalLoop=1;jettySize=auto;html=1;" parent="WIyWlLk6GJQsqaUBKTNV-1" source="g3EVMuYso_FqyBGCc2nE-19" edge="1">
          <mxGeometry relative="1" as="geometry">
            <mxPoint x="1520" y="420" as="targetPoint" />
          </mxGeometry>
        </mxCell>
        <mxCell id="g3EVMuYso_FqyBGCc2nE-19" value="sunken_ask_measurement" style="rounded=1;whiteSpace=wrap;html=1;labelBackgroundColor=none;" parent="WIyWlLk6GJQsqaUBKTNV-1" vertex="1">
          <mxGeometry x="1335" y="370" width="180" height="60" as="geometry" />
        </mxCell>
        <mxCell id="g3EVMuYso_FqyBGCc2nE-24" value="True" style="edgeStyle=orthogonalEdgeStyle;rounded=0;orthogonalLoop=1;jettySize=auto;html=1;labelBackgroundColor=none;fontColor=default;entryX=0.11;entryY=0.513;entryDx=0;entryDy=0;entryPerimeter=0;" parent="WIyWlLk6GJQsqaUBKTNV-1" source="g3EVMuYso_FqyBGCc2nE-21" target="YPjIWQZWxmA1oh4F8OOP-26" edge="1">
          <mxGeometry relative="1" as="geometry">
            <mxPoint x="1550" y="510" as="targetPoint" />
          </mxGeometry>
        </mxCell>
        <mxCell id="g3EVMuYso_FqyBGCc2nE-26" value="False" style="edgeStyle=orthogonalEdgeStyle;rounded=0;orthogonalLoop=1;jettySize=auto;html=1;labelBackgroundColor=none;fontColor=default;entryX=0.858;entryY=0;entryDx=0;entryDy=0;entryPerimeter=0;" parent="WIyWlLk6GJQsqaUBKTNV-1" source="g3EVMuYso_FqyBGCc2nE-21" target="g3EVMuYso_FqyBGCc2nE-28" edge="1">
          <mxGeometry x="-0.8437" y="-10" relative="1" as="geometry">
            <mxPoint x="1150" y="390" as="targetPoint" />
            <Array as="points">
              <mxPoint x="1230" y="510" />
              <mxPoint x="1230" y="340" />
              <mxPoint x="1018" y="340" />
            </Array>
            <mxPoint as="offset" />
          </mxGeometry>
        </mxCell>
        <mxCell id="g3EVMuYso_FqyBGCc2nE-21" value="if measurement &amp;lt; 3.8" style="rhombus;whiteSpace=wrap;html=1;labelBackgroundColor=none;" parent="WIyWlLk6GJQsqaUBKTNV-1" vertex="1">
          <mxGeometry x="1355" y="470" width="140" height="80" as="geometry" />
        </mxCell>
        <mxCell id="g3EVMuYso_FqyBGCc2nE-23" value="Swap" style="ellipse;whiteSpace=wrap;html=1;labelBackgroundColor=none;" parent="WIyWlLk6GJQsqaUBKTNV-1" vertex="1">
          <mxGeometry x="1800" y="590" width="120" height="80" as="geometry" />
        </mxCell>
        <mxCell id="g3EVMuYso_FqyBGCc2nE-31" style="edgeStyle=orthogonalEdgeStyle;rounded=0;orthogonalLoop=1;jettySize=auto;html=1;entryX=0.5;entryY=0;entryDx=0;entryDy=0;" parent="WIyWlLk6GJQsqaUBKTNV-1" source="g3EVMuYso_FqyBGCc2nE-28" target="g3EVMuYso_FqyBGCc2nE-36" edge="1">
          <mxGeometry relative="1" as="geometry" />
        </mxCell>
        <mxCell id="g3EVMuYso_FqyBGCc2nE-52" style="edgeStyle=orthogonalEdgeStyle;rounded=0;orthogonalLoop=1;jettySize=auto;html=1;entryX=0;entryY=0.5;entryDx=0;entryDy=0;" parent="WIyWlLk6GJQsqaUBKTNV-1" source="g3EVMuYso_FqyBGCc2nE-36" target="4TRNi6pCDRtCIutJIhP7-101" edge="1">
          <mxGeometry relative="1" as="geometry">
            <Array as="points">
              <mxPoint x="880" y="495" />
              <mxPoint x="880" y="610" />
            </Array>
          </mxGeometry>
        </mxCell>
        <mxCell id="g3EVMuYso_FqyBGCc2nE-53" value="False" style="edgeLabel;html=1;align=center;verticalAlign=middle;resizable=0;points=[];" parent="g3EVMuYso_FqyBGCc2nE-52" vertex="1" connectable="0">
          <mxGeometry x="-0.7014" y="2" relative="1" as="geometry">
            <mxPoint x="-4" y="37" as="offset" />
          </mxGeometry>
        </mxCell>
        <mxCell id="pwLWd-mjAGraBpHTUjHC-0" style="edgeStyle=orthogonalEdgeStyle;rounded=0;orthogonalLoop=1;jettySize=auto;html=1;entryX=0;entryY=0.5;entryDx=0;entryDy=0;" parent="WIyWlLk6GJQsqaUBKTNV-1" target="fxsn1H21XU6vCMdtgkNi-19" edge="1">
          <mxGeometry relative="1" as="geometry">
            <mxPoint x="905" y="1424.98" as="targetPoint" />
            <mxPoint x="820.0000000000002" y="524.9799999999998" as="sourcePoint" />
            <Array as="points">
              <mxPoint x="820" y="1470" />
            </Array>
          </mxGeometry>
        </mxCell>
        <mxCell id="pwLWd-mjAGraBpHTUjHC-1" value="True" style="edgeLabel;html=1;align=center;verticalAlign=middle;resizable=0;points=[];" parent="pwLWd-mjAGraBpHTUjHC-0" vertex="1" connectable="0">
          <mxGeometry x="-0.7927" y="1" relative="1" as="geometry">
            <mxPoint as="offset" />
          </mxGeometry>
        </mxCell>
        <mxCell id="g3EVMuYso_FqyBGCc2nE-36" value="if is_modular" style="rhombus;whiteSpace=wrap;html=1;" parent="WIyWlLk6GJQsqaUBKTNV-1" vertex="1">
          <mxGeometry x="780" y="455" width="80" height="80" as="geometry" />
        </mxCell>
        <mxCell id="g3EVMuYso_FqyBGCc2nE-28" value="" style="shape=hexagon;perimeter=hexagonPerimeter2;whiteSpace=wrap;html=1;fixedSize=1;" parent="WIyWlLk6GJQsqaUBKTNV-1" vertex="1">
          <mxGeometry x="915" y="380" width="120" height="80" as="geometry" />
        </mxCell>
        <mxCell id="g3EVMuYso_FqyBGCc2nE-57" value="Put labels on the new bot " style="rounded=1;whiteSpace=wrap;html=1;labelBackgroundColor=none;" parent="WIyWlLk6GJQsqaUBKTNV-1" vertex="1">
          <mxGeometry x="2300" y="1545" width="120" height="60" as="geometry" />
        </mxCell>
        <mxCell id="g3EVMuYso_FqyBGCc2nE-62" value="True" style="edgeStyle=orthogonalEdgeStyle;rounded=0;orthogonalLoop=1;jettySize=auto;html=1;entryX=0.5;entryY=0;entryDx=0;entryDy=0;exitX=1;exitY=0.5;exitDx=0;exitDy=0;" parent="WIyWlLk6GJQsqaUBKTNV-1" source="g3EVMuYso_FqyBGCc2nE-61" target="4TRNi6pCDRtCIutJIhP7-25" edge="1">
          <mxGeometry relative="1" as="geometry" />
        </mxCell>
        <mxCell id="g3EVMuYso_FqyBGCc2nE-63" value="False" style="edgeStyle=orthogonalEdgeStyle;rounded=0;orthogonalLoop=1;jettySize=auto;html=1;entryX=0;entryY=0.5;entryDx=0;entryDy=0;exitX=0.5;exitY=1;exitDx=0;exitDy=0;" parent="WIyWlLk6GJQsqaUBKTNV-1" source="g3EVMuYso_FqyBGCc2nE-61" target="g3EVMuYso_FqyBGCc2nE-64" edge="1">
          <mxGeometry x="-0.5625" y="-10" relative="1" as="geometry">
            <mxPoint x="70" y="1586.25" as="targetPoint" />
            <Array as="points">
              <mxPoint x="60" y="1566.25" />
            </Array>
            <mxPoint as="offset" />
          </mxGeometry>
        </mxCell>
        <mxCell id="g3EVMuYso_FqyBGCc2nE-61" value="if can_vacuum" style="rhombus;whiteSpace=wrap;html=1;" parent="WIyWlLk6GJQsqaUBKTNV-1" vertex="1">
          <mxGeometry x="20" y="1351.25" width="80" height="80" as="geometry" />
        </mxCell>
        <mxCell id="g3EVMuYso_FqyBGCc2nE-65" style="edgeStyle=orthogonalEdgeStyle;rounded=0;orthogonalLoop=1;jettySize=auto;html=1;exitX=0.5;exitY=1;exitDx=0;exitDy=0;entryX=0.5;entryY=0;entryDx=0;entryDy=0;" parent="WIyWlLk6GJQsqaUBKTNV-1" source="g3EVMuYso_FqyBGCc2nE-64" target="4TRNi6pCDRtCIutJIhP7-48" edge="1">
          <mxGeometry relative="1" as="geometry" />
        </mxCell>
        <mxCell id="g3EVMuYso_FqyBGCc2nE-64" value="" style="shape=hexagon;perimeter=hexagonPerimeter2;whiteSpace=wrap;html=1;fixedSize=1;" parent="WIyWlLk6GJQsqaUBKTNV-1" vertex="1">
          <mxGeometry x="85" y="1541.25" width="110" height="50" as="geometry" />
        </mxCell>
        <mxCell id="g3EVMuYso_FqyBGCc2nE-67" style="edgeStyle=orthogonalEdgeStyle;rounded=0;orthogonalLoop=1;jettySize=auto;html=1;entryX=0.5;entryY=0;entryDx=0;entryDy=0;" parent="WIyWlLk6GJQsqaUBKTNV-1" source="g3EVMuYso_FqyBGCc2nE-66" target="g3EVMuYso_FqyBGCc2nE-61" edge="1">
          <mxGeometry relative="1" as="geometry">
            <Array as="points">
              <mxPoint x="75" y="1336.25" />
              <mxPoint x="75" y="1331.25" />
              <mxPoint x="60" y="1331.25" />
            </Array>
          </mxGeometry>
        </mxCell>
        <mxCell id="g3EVMuYso_FqyBGCc2nE-66" value="" style="shape=hexagon;perimeter=hexagonPerimeter2;whiteSpace=wrap;html=1;fixedSize=1;" parent="WIyWlLk6GJQsqaUBKTNV-1" vertex="1">
          <mxGeometry x="95" y="1316.25" width="90" height="45" as="geometry" />
        </mxCell>
        <mxCell id="g3EVMuYso_FqyBGCc2nE-70" value="False" style="edgeStyle=orthogonalEdgeStyle;rounded=0;orthogonalLoop=1;jettySize=auto;html=1;entryX=0.5;entryY=0;entryDx=0;entryDy=0;" parent="WIyWlLk6GJQsqaUBKTNV-1" source="g3EVMuYso_FqyBGCc2nE-69" target="Y3o4zUVy-MV-adPHcKIv-8" edge="1">
          <mxGeometry relative="1" as="geometry" />
        </mxCell>
        <mxCell id="g3EVMuYso_FqyBGCc2nE-72" value="True" style="edgeStyle=orthogonalEdgeStyle;rounded=0;orthogonalLoop=1;jettySize=auto;html=1;" parent="WIyWlLk6GJQsqaUBKTNV-1" source="g3EVMuYso_FqyBGCc2nE-69" target="g3EVMuYso_FqyBGCc2nE-71" edge="1">
          <mxGeometry x="-0.6842" y="10" relative="1" as="geometry">
            <mxPoint as="offset" />
          </mxGeometry>
        </mxCell>
        <mxCell id="g3EVMuYso_FqyBGCc2nE-69" value="if M6" style="rhombus;whiteSpace=wrap;html=1;" parent="WIyWlLk6GJQsqaUBKTNV-1" vertex="1">
          <mxGeometry x="2320" y="900" width="80" height="80" as="geometry" />
        </mxCell>
        <mxCell id="3pm61Zj5QoI2iHKxV5r9-39" style="edgeStyle=orthogonalEdgeStyle;rounded=0;orthogonalLoop=1;jettySize=auto;html=1;entryX=1;entryY=0.75;entryDx=0;entryDy=0;" parent="WIyWlLk6GJQsqaUBKTNV-1" source="g3EVMuYso_FqyBGCc2nE-71" target="RLRDXqjsHfM8Xnnao1ib-0" edge="1">
          <mxGeometry relative="1" as="geometry">
            <Array as="points">
              <mxPoint x="2520" y="1330" />
            </Array>
          </mxGeometry>
        </mxCell>
        <mxCell id="g3EVMuYso_FqyBGCc2nE-71" value="Reload case and order swap  ('out' if out of stock)_M6" style="rounded=1;whiteSpace=wrap;html=1;" parent="WIyWlLk6GJQsqaUBKTNV-1" vertex="1">
          <mxGeometry x="2460" y="1010" width="120" height="60" as="geometry" />
        </mxCell>
        <mxCell id="g3EVMuYso_FqyBGCc2nE-76" value="True" style="edgeStyle=orthogonalEdgeStyle;rounded=0;orthogonalLoop=1;jettySize=auto;html=1;entryX=0.5;entryY=0;entryDx=0;entryDy=0;" parent="WIyWlLk6GJQsqaUBKTNV-1" source="pwLWd-mjAGraBpHTUjHC-2" target="4TRNi6pCDRtCIutJIhP7-12" edge="1">
          <mxGeometry relative="1" as="geometry" />
        </mxCell>
        <mxCell id="YPjIWQZWxmA1oh4F8OOP-2" value="False" style="edgeStyle=orthogonalEdgeStyle;rounded=0;orthogonalLoop=1;jettySize=auto;html=1;" parent="WIyWlLk6GJQsqaUBKTNV-1" source="3pm61Zj5QoI2iHKxV5r9-30" target="4TRNi6pCDRtCIutJIhP7-89" edge="1">
          <mxGeometry x="-0.5883" y="10" relative="1" as="geometry">
            <mxPoint as="offset" />
          </mxGeometry>
        </mxCell>
        <mxCell id="YPjIWQZWxmA1oh4F8OOP-4" value="True" style="edgeStyle=orthogonalEdgeStyle;rounded=0;orthogonalLoop=1;jettySize=auto;html=1;entryX=0;entryY=0.5;entryDx=0;entryDy=0;" parent="WIyWlLk6GJQsqaUBKTNV-1" source="YPjIWQZWxmA1oh4F8OOP-0" target="YPjIWQZWxmA1oh4F8OOP-3" edge="1">
          <mxGeometry relative="1" as="geometry" />
        </mxCell>
        <mxCell id="YPjIWQZWxmA1oh4F8OOP-0" value="if is_dock" style="rhombus;whiteSpace=wrap;html=1;" parent="WIyWlLk6GJQsqaUBKTNV-1" vertex="1">
          <mxGeometry x="560" y="1015" width="80" height="80" as="geometry" />
        </mxCell>
        <mxCell id="3pm61Zj5QoI2iHKxV5r9-29" style="edgeStyle=orthogonalEdgeStyle;rounded=0;orthogonalLoop=1;jettySize=auto;html=1;entryX=1;entryY=0.5;entryDx=0;entryDy=0;" parent="WIyWlLk6GJQsqaUBKTNV-1" source="YPjIWQZWxmA1oh4F8OOP-3" target="3pm61Zj5QoI2iHKxV5r9-27" edge="1">
          <mxGeometry relative="1" as="geometry">
            <Array as="points">
              <mxPoint x="730" y="1150" />
            </Array>
          </mxGeometry>
        </mxCell>
        <mxCell id="YPjIWQZWxmA1oh4F8OOP-3" value="Is there a bag in the dock " style="rounded=1;whiteSpace=wrap;html=1;" parent="WIyWlLk6GJQsqaUBKTNV-1" vertex="1">
          <mxGeometry x="670" y="1025" width="120" height="60" as="geometry" />
        </mxCell>
        <mxCell id="YPjIWQZWxmA1oh4F8OOP-7" value="Finish" style="ellipse;whiteSpace=wrap;html=1;" parent="WIyWlLk6GJQsqaUBKTNV-1" vertex="1">
          <mxGeometry x="699" y="530" width="70" height="55" as="geometry" />
        </mxCell>
        <mxCell id="pERgeG-NBUjvUuYuyOd--11" style="edgeStyle=orthogonalEdgeStyle;rounded=0;orthogonalLoop=1;jettySize=auto;html=1;entryX=0.5;entryY=0;entryDx=0;entryDy=0;" parent="WIyWlLk6GJQsqaUBKTNV-1" source="YPjIWQZWxmA1oh4F8OOP-11" target="4TRNi6pCDRtCIutJIhP7-15" edge="1">
          <mxGeometry relative="1" as="geometry" />
        </mxCell>
        <mxCell id="YPjIWQZWxmA1oh4F8OOP-11" value="Wait for the case to be double checked " style="rounded=1;whiteSpace=wrap;html=1;" parent="WIyWlLk6GJQsqaUBKTNV-1" vertex="1">
          <mxGeometry x="65" y="2177.5" width="150" height="60" as="geometry" />
        </mxCell>
        <mxCell id="YPjIWQZWxmA1oh4F8OOP-16" value="True" style="edgeStyle=orthogonalEdgeStyle;rounded=0;orthogonalLoop=1;jettySize=auto;html=1;entryX=0.5;entryY=0;entryDx=0;entryDy=0;" parent="WIyWlLk6GJQsqaUBKTNV-1" source="YPjIWQZWxmA1oh4F8OOP-14" target="g3EVMuYso_FqyBGCc2nE-5" edge="1">
          <mxGeometry relative="1" as="geometry" />
        </mxCell>
        <mxCell id="YPjIWQZWxmA1oh4F8OOP-17" value="False" style="edgeStyle=orthogonalEdgeStyle;rounded=0;orthogonalLoop=1;jettySize=auto;html=1;entryX=1;entryY=0.5;entryDx=0;entryDy=0;" parent="WIyWlLk6GJQsqaUBKTNV-1" source="YPjIWQZWxmA1oh4F8OOP-14" target="SEcOQ4zRB9NBcKpOXhuR-1" edge="1">
          <mxGeometry x="-0.3208" relative="1" as="geometry">
            <mxPoint x="260" y="2520" as="targetPoint" />
            <Array as="points">
              <mxPoint x="250" y="2520" />
              <mxPoint x="250" y="2730" />
            </Array>
            <mxPoint as="offset" />
          </mxGeometry>
        </mxCell>
        <mxCell id="YPjIWQZWxmA1oh4F8OOP-14" value="if notes have been changed" style="rhombus;whiteSpace=wrap;html=1;" parent="WIyWlLk6GJQsqaUBKTNV-1" vertex="1">
          <mxGeometry x="70" y="2480" width="140" height="80" as="geometry" />
        </mxCell>
        <mxCell id="YPjIWQZWxmA1oh4F8OOP-19" value="" style="shape=hexagon;perimeter=hexagonPerimeter2;whiteSpace=wrap;html=1;fixedSize=1;" parent="WIyWlLk6GJQsqaUBKTNV-1" vertex="1">
          <mxGeometry x="1785" y="470" width="120" height="80" as="geometry" />
        </mxCell>
        <mxCell id="YPjIWQZWxmA1oh4F8OOP-22" value="False" style="edgeStyle=orthogonalEdgeStyle;rounded=0;orthogonalLoop=1;jettySize=auto;html=1;entryX=0;entryY=0.5;entryDx=0;entryDy=0;" parent="WIyWlLk6GJQsqaUBKTNV-1" source="YPjIWQZWxmA1oh4F8OOP-20" target="4TRNi6pCDRtCIutJIhP7-143" edge="1">
          <mxGeometry relative="1" as="geometry" />
        </mxCell>
        <mxCell id="YPjIWQZWxmA1oh4F8OOP-24" value="True" style="edgeStyle=orthogonalEdgeStyle;rounded=0;orthogonalLoop=1;jettySize=auto;html=1;" parent="WIyWlLk6GJQsqaUBKTNV-1" source="YPjIWQZWxmA1oh4F8OOP-20" target="YPjIWQZWxmA1oh4F8OOP-23" edge="1">
          <mxGeometry relative="1" as="geometry" />
        </mxCell>
        <mxCell id="YPjIWQZWxmA1oh4F8OOP-20" value="if&amp;nbsp;_swap_after_Battery test (don't forget the traveler) " style="rhombus;whiteSpace=wrap;html=1;" parent="WIyWlLk6GJQsqaUBKTNV-1" vertex="1">
          <mxGeometry x="680" y="2145" width="198" height="80" as="geometry" />
        </mxCell>
        <mxCell id="YPjIWQZWxmA1oh4F8OOP-23" value="Swap" style="ellipse;whiteSpace=wrap;html=1;" parent="WIyWlLk6GJQsqaUBKTNV-1" vertex="1">
          <mxGeometry x="719" y="2265" width="120" height="80" as="geometry" />
        </mxCell>
        <mxCell id="YPjIWQZWxmA1oh4F8OOP-25" style="edgeStyle=orthogonalEdgeStyle;rounded=0;orthogonalLoop=1;jettySize=auto;html=1;entryX=0.879;entryY=0.35;entryDx=0;entryDy=0;entryPerimeter=0;" parent="WIyWlLk6GJQsqaUBKTNV-1" source="4TRNi6pCDRtCIutJIhP7-141" target="YPjIWQZWxmA1oh4F8OOP-20" edge="1">
          <mxGeometry relative="1" as="geometry">
            <Array as="points">
              <mxPoint x="1235" y="2173" />
            </Array>
          </mxGeometry>
        </mxCell>
        <mxCell id="YPjIWQZWxmA1oh4F8OOP-30" style="edgeStyle=orthogonalEdgeStyle;rounded=0;orthogonalLoop=1;jettySize=auto;html=1;entryX=0;entryY=0.5;entryDx=0;entryDy=0;exitX=0.929;exitY=0.5;exitDx=0;exitDy=0;exitPerimeter=0;" parent="WIyWlLk6GJQsqaUBKTNV-1" source="YPjIWQZWxmA1oh4F8OOP-26" target="YPjIWQZWxmA1oh4F8OOP-19" edge="1">
          <mxGeometry relative="1" as="geometry" />
        </mxCell>
        <mxCell id="YPjIWQZWxmA1oh4F8OOP-26" value="_swap_after_Battery test (don't forget the traveler) &lt;div&gt;= True&lt;/div&gt;" style="ellipse;shape=cloud;whiteSpace=wrap;html=1;" parent="WIyWlLk6GJQsqaUBKTNV-1" vertex="1">
          <mxGeometry x="1550" y="470" width="210" height="80" as="geometry" />
        </mxCell>
        <mxCell id="YPjIWQZWxmA1oh4F8OOP-31" value="Take pictures of liquid residue" style="rounded=1;whiteSpace=wrap;html=1;labelBackgroundColor=none;" parent="WIyWlLk6GJQsqaUBKTNV-1" vertex="1">
          <mxGeometry x="1325" y="1611.25" width="120" height="60" as="geometry" />
        </mxCell>
        <mxCell id="YPjIWQZWxmA1oh4F8OOP-35" value="False" style="edgeStyle=orthogonalEdgeStyle;rounded=0;orthogonalLoop=1;jettySize=auto;html=1;entryX=0.5;entryY=0;entryDx=0;entryDy=0;" parent="WIyWlLk6GJQsqaUBKTNV-1" source="YPjIWQZWxmA1oh4F8OOP-33" target="4TRNi6pCDRtCIutJIhP7-122" edge="1">
          <mxGeometry relative="1" as="geometry" />
        </mxCell>
        <mxCell id="YPjIWQZWxmA1oh4F8OOP-37" value="True" style="edgeStyle=orthogonalEdgeStyle;rounded=0;orthogonalLoop=1;jettySize=auto;html=1;" parent="WIyWlLk6GJQsqaUBKTNV-1" source="YPjIWQZWxmA1oh4F8OOP-33" target="YPjIWQZWxmA1oh4F8OOP-36" edge="1">
          <mxGeometry relative="1" as="geometry" />
        </mxCell>
        <mxCell id="YPjIWQZWxmA1oh4F8OOP-33" value="if dock can refill" style="rhombus;whiteSpace=wrap;html=1;" parent="WIyWlLk6GJQsqaUBKTNV-1" vertex="1">
          <mxGeometry x="935" y="1130" width="80" height="80" as="geometry" />
        </mxCell>
        <mxCell id="YPjIWQZWxmA1oh4F8OOP-38" style="edgeStyle=orthogonalEdgeStyle;rounded=0;orthogonalLoop=1;jettySize=auto;html=1;entryX=1;entryY=0;entryDx=0;entryDy=0;" parent="WIyWlLk6GJQsqaUBKTNV-1" source="YPjIWQZWxmA1oh4F8OOP-36" target="4TRNi6pCDRtCIutJIhP7-122" edge="1">
          <mxGeometry relative="1" as="geometry">
            <mxPoint x="1150" y="1210" as="targetPoint" />
            <Array as="points">
              <mxPoint x="1165" y="1230" />
              <mxPoint x="1050" y="1230" />
              <mxPoint x="1050" y="1270" />
            </Array>
          </mxGeometry>
        </mxCell>
        <mxCell id="YPjIWQZWxmA1oh4F8OOP-36" value="Additional dock, and any other parts (comma seperated) _tank_rust" style="rounded=1;whiteSpace=wrap;html=1;" parent="WIyWlLk6GJQsqaUBKTNV-1" vertex="1">
          <mxGeometry x="1105" y="1140" width="120" height="60" as="geometry" />
        </mxCell>
        <mxCell id="YPjIWQZWxmA1oh4F8OOP-51" style="edgeStyle=orthogonalEdgeStyle;rounded=0;orthogonalLoop=1;jettySize=auto;html=1;entryX=0.5;entryY=0;entryDx=0;entryDy=0;" parent="WIyWlLk6GJQsqaUBKTNV-1" source="YPjIWQZWxmA1oh4F8OOP-39" target="YPjIWQZWxmA1oh4F8OOP-41" edge="1">
          <mxGeometry relative="1" as="geometry" />
        </mxCell>
        <mxCell id="YPjIWQZWxmA1oh4F8OOP-39" value="" style="shape=hexagon;perimeter=hexagonPerimeter2;whiteSpace=wrap;html=1;fixedSize=1;" parent="WIyWlLk6GJQsqaUBKTNV-1" vertex="1">
          <mxGeometry x="920" y="710" width="110" height="30" as="geometry" />
        </mxCell>
        <mxCell id="YPjIWQZWxmA1oh4F8OOP-43" value="True" style="edgeStyle=orthogonalEdgeStyle;rounded=0;orthogonalLoop=1;jettySize=auto;html=1;entryX=0;entryY=0.5;entryDx=0;entryDy=0;" parent="WIyWlLk6GJQsqaUBKTNV-1" source="YPjIWQZWxmA1oh4F8OOP-41" target="4TRNi6pCDRtCIutJIhP7-105" edge="1">
          <mxGeometry relative="1" as="geometry" />
        </mxCell>
        <mxCell id="YPjIWQZWxmA1oh4F8OOP-41" value="if can_vacuum" style="rhombus;whiteSpace=wrap;html=1;" parent="WIyWlLk6GJQsqaUBKTNV-1" vertex="1">
          <mxGeometry x="935" y="765" width="80" height="50" as="geometry" />
        </mxCell>
        <mxCell id="YPjIWQZWxmA1oh4F8OOP-53" style="edgeStyle=orthogonalEdgeStyle;rounded=0;orthogonalLoop=1;jettySize=auto;html=1;exitX=0.5;exitY=1;exitDx=0;exitDy=0;entryX=0.5;entryY=0;entryDx=0;entryDy=0;" parent="WIyWlLk6GJQsqaUBKTNV-1" source="YPjIWQZWxmA1oh4F8OOP-45" target="4TRNi6pCDRtCIutJIhP7-116" edge="1">
          <mxGeometry relative="1" as="geometry">
            <mxPoint x="978" y="900" as="targetPoint" />
          </mxGeometry>
        </mxCell>
        <mxCell id="YPjIWQZWxmA1oh4F8OOP-45" value="" style="shape=hexagon;perimeter=hexagonPerimeter2;whiteSpace=wrap;html=1;fixedSize=1;" parent="WIyWlLk6GJQsqaUBKTNV-1" vertex="1">
          <mxGeometry x="925" y="850" width="105" height="35" as="geometry" />
        </mxCell>
        <mxCell id="YPjIWQZWxmA1oh4F8OOP-55" value="True" style="edgeStyle=orthogonalEdgeStyle;rounded=0;orthogonalLoop=1;jettySize=auto;html=1;entryX=0.5;entryY=0;entryDx=0;entryDy=0;" parent="WIyWlLk6GJQsqaUBKTNV-1" source="YPjIWQZWxmA1oh4F8OOP-54" target="4TRNi6pCDRtCIutJIhP7-131" edge="1">
          <mxGeometry relative="1" as="geometry" />
        </mxCell>
        <mxCell id="YPjIWQZWxmA1oh4F8OOP-56" value="False" style="edgeStyle=orthogonalEdgeStyle;rounded=0;orthogonalLoop=1;jettySize=auto;html=1;entryX=0.5;entryY=0;entryDx=0;entryDy=0;" parent="WIyWlLk6GJQsqaUBKTNV-1" source="YPjIWQZWxmA1oh4F8OOP-54" target="YPjIWQZWxmA1oh4F8OOP-57" edge="1">
          <mxGeometry x="-0.6667" y="-25" relative="1" as="geometry">
            <mxPoint as="offset" />
          </mxGeometry>
        </mxCell>
        <mxCell id="YPjIWQZWxmA1oh4F8OOP-54" value="if can_vacuum" style="rhombus;whiteSpace=wrap;html=1;" parent="WIyWlLk6GJQsqaUBKTNV-1" vertex="1">
          <mxGeometry x="935" y="1690" width="80" height="80" as="geometry" />
        </mxCell>
        <mxCell id="YPjIWQZWxmA1oh4F8OOP-58" style="edgeStyle=orthogonalEdgeStyle;rounded=0;orthogonalLoop=1;jettySize=auto;html=1;" parent="WIyWlLk6GJQsqaUBKTNV-1" source="YPjIWQZWxmA1oh4F8OOP-57" target="4TRNi6pCDRtCIutJIhP7-134" edge="1">
          <mxGeometry relative="1" as="geometry">
            <Array as="points">
              <mxPoint x="845" y="1870" />
            </Array>
          </mxGeometry>
        </mxCell>
        <mxCell id="YPjIWQZWxmA1oh4F8OOP-57" value="" style="shape=hexagon;perimeter=hexagonPerimeter2;whiteSpace=wrap;html=1;fixedSize=1;" parent="WIyWlLk6GJQsqaUBKTNV-1" vertex="1">
          <mxGeometry x="785" y="1760" width="120" height="80" as="geometry" />
        </mxCell>
        <mxCell id="YPjIWQZWxmA1oh4F8OOP-60" value="False" style="edgeStyle=orthogonalEdgeStyle;rounded=0;orthogonalLoop=1;jettySize=auto;html=1;entryX=0.5;entryY=0;entryDx=0;entryDy=0;" parent="WIyWlLk6GJQsqaUBKTNV-1" source="YPjIWQZWxmA1oh4F8OOP-59" target="4TRNi6pCDRtCIutJIhP7-9" edge="1">
          <mxGeometry relative="1" as="geometry" />
        </mxCell>
        <mxCell id="YPjIWQZWxmA1oh4F8OOP-62" value="True" style="edgeStyle=orthogonalEdgeStyle;rounded=0;orthogonalLoop=1;jettySize=auto;html=1;" parent="WIyWlLk6GJQsqaUBKTNV-1" source="YPjIWQZWxmA1oh4F8OOP-59" target="YPjIWQZWxmA1oh4F8OOP-61" edge="1">
          <mxGeometry relative="1" as="geometry" />
        </mxCell>
        <mxCell id="YPjIWQZWxmA1oh4F8OOP-59" value="if M6" style="rhombus;whiteSpace=wrap;html=1;" parent="WIyWlLk6GJQsqaUBKTNV-1" vertex="1">
          <mxGeometry x="400" y="1611.25" width="80" height="80" as="geometry" />
        </mxCell>
        <mxCell id="YPjIWQZWxmA1oh4F8OOP-63" style="edgeStyle=orthogonalEdgeStyle;rounded=0;orthogonalLoop=1;jettySize=auto;html=1;entryX=1;entryY=0.5;entryDx=0;entryDy=0;" parent="WIyWlLk6GJQsqaUBKTNV-1" source="YPjIWQZWxmA1oh4F8OOP-61" edge="1">
          <mxGeometry relative="1" as="geometry">
            <Array as="points">
              <mxPoint x="360" y="1776.25" />
              <mxPoint x="360" y="1776.25" />
            </Array>
            <mxPoint x="200" y="1776.25" as="targetPoint" />
          </mxGeometry>
        </mxCell>
        <mxCell id="YPjIWQZWxmA1oh4F8OOP-61" value="The pad is not on the bot " style="rounded=1;whiteSpace=wrap;html=1;" parent="WIyWlLk6GJQsqaUBKTNV-1" vertex="1">
          <mxGeometry x="380" y="1761.25" width="150" height="60" as="geometry" />
        </mxCell>
        <mxCell id="fxsn1H21XU6vCMdtgkNi-9" value="" style="edgeStyle=orthogonalEdgeStyle;rounded=0;orthogonalLoop=1;jettySize=auto;html=1;" edge="1" parent="WIyWlLk6GJQsqaUBKTNV-1" source="N_G4AyvHokrERCju8nTB-5" target="4TRNi6pCDRtCIutJIhP7-18">
          <mxGeometry relative="1" as="geometry" />
        </mxCell>
        <mxCell id="N_G4AyvHokrERCju8nTB-5" value="Wait for parts to get closed out  " style="rounded=1;whiteSpace=wrap;html=1;" parent="WIyWlLk6GJQsqaUBKTNV-1" vertex="1">
          <mxGeometry x="90" y="3080" width="120" height="60" as="geometry" />
        </mxCell>
        <mxCell id="u5DhCHbQQdsRiZ_qtFFG-4" style="edgeStyle=orthogonalEdgeStyle;rounded=0;orthogonalLoop=1;jettySize=auto;html=1;entryX=0.5;entryY=0;entryDx=0;entryDy=0;" parent="WIyWlLk6GJQsqaUBKTNV-1" source="u5DhCHbQQdsRiZ_qtFFG-3" target="g3EVMuYso_FqyBGCc2nE-57" edge="1">
          <mxGeometry relative="1" as="geometry" />
        </mxCell>
        <mxCell id="u5DhCHbQQdsRiZ_qtFFG-3" value="Put the new serial number into CSS  " style="rounded=1;whiteSpace=wrap;html=1;" parent="WIyWlLk6GJQsqaUBKTNV-1" vertex="1">
          <mxGeometry x="2280" y="1460" width="160" height="60" as="geometry" />
        </mxCell>
        <mxCell id="RLRDXqjsHfM8Xnnao1ib-2" style="edgeStyle=orthogonalEdgeStyle;rounded=0;orthogonalLoop=1;jettySize=auto;html=1;" parent="WIyWlLk6GJQsqaUBKTNV-1" source="3pm61Zj5QoI2iHKxV5r9-37" target="u5DhCHbQQdsRiZ_qtFFG-3" edge="1">
          <mxGeometry relative="1" as="geometry" />
        </mxCell>
        <mxCell id="RLRDXqjsHfM8Xnnao1ib-0" value="Is the swapped bot a refurb? " style="rounded=1;whiteSpace=wrap;html=1;" parent="WIyWlLk6GJQsqaUBKTNV-1" vertex="1">
          <mxGeometry x="2300" y="1285" width="120" height="60" as="geometry" />
        </mxCell>
        <mxCell id="RLRDXqjsHfM8Xnnao1ib-5" value="False" style="edgeStyle=orthogonalEdgeStyle;rounded=0;orthogonalLoop=1;jettySize=auto;html=1;" parent="WIyWlLk6GJQsqaUBKTNV-1" source="RLRDXqjsHfM8Xnnao1ib-3" target="4TRNi6pCDRtCIutJIhP7-17" edge="1">
          <mxGeometry relative="1" as="geometry" />
        </mxCell>
        <mxCell id="RLRDXqjsHfM8Xnnao1ib-7" style="edgeStyle=orthogonalEdgeStyle;rounded=0;orthogonalLoop=1;jettySize=auto;html=1;entryX=0.5;entryY=0;entryDx=0;entryDy=0;" parent="WIyWlLk6GJQsqaUBKTNV-1" source="RLRDXqjsHfM8Xnnao1ib-3" target="RLRDXqjsHfM8Xnnao1ib-6" edge="1">
          <mxGeometry relative="1" as="geometry" />
        </mxCell>
        <mxCell id="RLRDXqjsHfM8Xnnao1ib-3" value="if can_mop" style="rhombus;whiteSpace=wrap;html=1;" parent="WIyWlLk6GJQsqaUBKTNV-1" vertex="1">
          <mxGeometry x="110" y="3372.5" width="80" height="80" as="geometry" />
        </mxCell>
        <mxCell id="RLRDXqjsHfM8Xnnao1ib-8" style="edgeStyle=orthogonalEdgeStyle;rounded=0;orthogonalLoop=1;jettySize=auto;html=1;entryX=1;entryY=0.5;entryDx=0;entryDy=0;" parent="WIyWlLk6GJQsqaUBKTNV-1" source="RLRDXqjsHfM8Xnnao1ib-6" target="4TRNi6pCDRtCIutJIhP7-192" edge="1">
          <mxGeometry relative="1" as="geometry">
            <Array as="points">
              <mxPoint x="355" y="3637.5" />
            </Array>
          </mxGeometry>
        </mxCell>
        <mxCell id="RLRDXqjsHfM8Xnnao1ib-6" value="Put the robot and traveler on the shelf _mopping" style="rounded=1;whiteSpace=wrap;html=1;" parent="WIyWlLk6GJQsqaUBKTNV-1" vertex="1">
          <mxGeometry x="255" y="3507.5" width="210" height="60" as="geometry" />
        </mxCell>
        <mxCell id="RLRDXqjsHfM8Xnnao1ib-10" value="False" style="edgeStyle=orthogonalEdgeStyle;rounded=0;orthogonalLoop=1;jettySize=auto;html=1;" parent="WIyWlLk6GJQsqaUBKTNV-1" source="RLRDXqjsHfM8Xnnao1ib-9" edge="1">
          <mxGeometry relative="1" as="geometry">
            <mxPoint x="599" y="417.5" as="targetPoint" />
          </mxGeometry>
        </mxCell>
        <mxCell id="RLRDXqjsHfM8Xnnao1ib-13" value="True" style="edgeStyle=orthogonalEdgeStyle;rounded=0;orthogonalLoop=1;jettySize=auto;html=1;" parent="WIyWlLk6GJQsqaUBKTNV-1" source="RLRDXqjsHfM8Xnnao1ib-9" target="RLRDXqjsHfM8Xnnao1ib-11" edge="1">
          <mxGeometry relative="1" as="geometry" />
        </mxCell>
        <mxCell id="RLRDXqjsHfM8Xnnao1ib-9" value="if M6" style="rhombus;whiteSpace=wrap;html=1;" parent="WIyWlLk6GJQsqaUBKTNV-1" vertex="1">
          <mxGeometry x="559" y="317.5" width="80" height="80" as="geometry" />
        </mxCell>
        <mxCell id="RLRDXqjsHfM8Xnnao1ib-12" style="edgeStyle=orthogonalEdgeStyle;rounded=0;orthogonalLoop=1;jettySize=auto;html=1;entryX=1;entryY=0.5;entryDx=0;entryDy=0;" parent="WIyWlLk6GJQsqaUBKTNV-1" source="RLRDXqjsHfM8Xnnao1ib-11" target="4TRNi6pCDRtCIutJIhP7-71" edge="1">
          <mxGeometry relative="1" as="geometry">
            <Array as="points">
              <mxPoint x="749" y="452.5" />
            </Array>
          </mxGeometry>
        </mxCell>
        <mxCell id="RLRDXqjsHfM8Xnnao1ib-11" value="Turn down the power setting on the screwdriver " style="rounded=1;whiteSpace=wrap;html=1;" parent="WIyWlLk6GJQsqaUBKTNV-1" vertex="1">
          <mxGeometry x="689" y="327.5" width="150" height="60" as="geometry" />
        </mxCell>
        <mxCell id="by09u7J7J3zAaNDgYdJO-1" style="edgeStyle=orthogonalEdgeStyle;rounded=0;orthogonalLoop=1;jettySize=auto;html=1;entryX=0.5;entryY=0;entryDx=0;entryDy=0;" parent="WIyWlLk6GJQsqaUBKTNV-1" source="by09u7J7J3zAaNDgYdJO-0" target="OTX8FOyM3t9rR1iEElJs-1" edge="1">
          <mxGeometry relative="1" as="geometry" />
        </mxCell>
        <mxCell id="by09u7J7J3zAaNDgYdJO-0" value="Pass mobility and attempted BiT " style="rounded=1;whiteSpace=wrap;html=1;" parent="WIyWlLk6GJQsqaUBKTNV-1" vertex="1">
          <mxGeometry x="70" y="110" width="140" height="60" as="geometry" />
        </mxCell>
        <mxCell id="OTX8FOyM3t9rR1iEElJs-3" style="edgeStyle=orthogonalEdgeStyle;rounded=0;orthogonalLoop=1;jettySize=auto;html=1;entryX=1;entryY=0.75;entryDx=0;entryDy=0;" parent="WIyWlLk6GJQsqaUBKTNV-1" source="OTX8FOyM3t9rR1iEElJs-0" target="SEcOQ4zRB9NBcKpOXhuR-17" edge="1">
          <mxGeometry relative="1" as="geometry">
            <Array as="points">
              <mxPoint x="410" y="370" />
              <mxPoint x="206" y="370" />
            </Array>
            <mxPoint x="225" y="395.0000000000002" as="targetPoint" />
          </mxGeometry>
        </mxCell>
        <mxCell id="OTX8FOyM3t9rR1iEElJs-0" value="Pass mobility with a Lapis bin " style="rounded=1;whiteSpace=wrap;html=1;" parent="WIyWlLk6GJQsqaUBKTNV-1" vertex="1">
          <mxGeometry x="260" y="180" width="160" height="60" as="geometry" />
        </mxCell>
        <mxCell id="pERgeG-NBUjvUuYuyOd--3" value="False" style="edgeStyle=orthogonalEdgeStyle;rounded=0;orthogonalLoop=1;jettySize=auto;html=1;exitX=0.5;exitY=1;exitDx=0;exitDy=0;entryX=0.5;entryY=0;entryDx=0;entryDy=0;" parent="WIyWlLk6GJQsqaUBKTNV-1" source="OTX8FOyM3t9rR1iEElJs-1" target="pERgeG-NBUjvUuYuyOd--1" edge="1">
          <mxGeometry relative="1" as="geometry" />
        </mxCell>
        <mxCell id="OTX8FOyM3t9rR1iEElJs-1" value="if has_lapis or is_factory_lapis" style="rhombus;whiteSpace=wrap;html=1;" parent="WIyWlLk6GJQsqaUBKTNV-1" vertex="1">
          <mxGeometry x="100" y="190" width="80" height="55" as="geometry" />
        </mxCell>
        <mxCell id="OTX8FOyM3t9rR1iEElJs-2" value="True" style="edgeStyle=orthogonalEdgeStyle;rounded=0;orthogonalLoop=1;jettySize=auto;html=1;entryX=0;entryY=0.664;entryDx=0;entryDy=0;entryPerimeter=0;" parent="WIyWlLk6GJQsqaUBKTNV-1" source="OTX8FOyM3t9rR1iEElJs-1" target="OTX8FOyM3t9rR1iEElJs-0" edge="1">
          <mxGeometry relative="1" as="geometry" />
        </mxCell>
        <mxCell id="pwLWd-mjAGraBpHTUjHC-2" value="if setting_do_double_check" style="rhombus;whiteSpace=wrap;html=1;" parent="WIyWlLk6GJQsqaUBKTNV-1" vertex="1">
          <mxGeometry x="55" y="625" width="170" height="80" as="geometry" />
        </mxCell>
        <mxCell id="pwLWd-mjAGraBpHTUjHC-9" value="True" style="edgeStyle=orthogonalEdgeStyle;rounded=0;orthogonalLoop=1;jettySize=auto;html=1;" parent="WIyWlLk6GJQsqaUBKTNV-1" source="pwLWd-mjAGraBpHTUjHC-7" target="YPjIWQZWxmA1oh4F8OOP-11" edge="1">
          <mxGeometry relative="1" as="geometry" />
        </mxCell>
        <mxCell id="pwLWd-mjAGraBpHTUjHC-7" value="if setting_do_double_check" style="rhombus;whiteSpace=wrap;html=1;" parent="WIyWlLk6GJQsqaUBKTNV-1" vertex="1">
          <mxGeometry x="50" y="2037.5" width="180" height="80" as="geometry" />
        </mxCell>
        <mxCell id="pwLWd-mjAGraBpHTUjHC-12" value="False" style="edgeStyle=orthogonalEdgeStyle;rounded=0;orthogonalLoop=1;jettySize=auto;html=1;entryX=1;entryY=0.5;entryDx=0;entryDy=0;" parent="WIyWlLk6GJQsqaUBKTNV-1" source="pwLWd-mjAGraBpHTUjHC-7" target="4TRNi6pCDRtCIutJIhP7-15" edge="1">
          <mxGeometry x="-0.8" y="10" relative="1" as="geometry">
            <Array as="points">
              <mxPoint x="250" y="2070" />
              <mxPoint x="250" y="2325" />
              <mxPoint x="202" y="2325" />
              <mxPoint x="202" y="2330" />
            </Array>
            <mxPoint as="offset" />
          </mxGeometry>
        </mxCell>
        <mxCell id="pwLWd-mjAGraBpHTUjHC-14" value="" style="edgeStyle=orthogonalEdgeStyle;rounded=0;orthogonalLoop=1;jettySize=auto;html=1;" parent="WIyWlLk6GJQsqaUBKTNV-1" source="4TRNi6pCDRtCIutJIhP7-12" target="4TRNi6pCDRtCIutJIhP7-13" edge="1">
          <mxGeometry relative="1" as="geometry">
            <mxPoint x="140" y="795" as="sourcePoint" />
            <mxPoint x="140" y="906" as="targetPoint" />
          </mxGeometry>
        </mxCell>
        <mxCell id="4TRNi6pCDRtCIutJIhP7-13" value="Placed into shipping mode " style="rounded=1;whiteSpace=wrap;html=1;labelBackgroundColor=none;" parent="WIyWlLk6GJQsqaUBKTNV-1" vertex="1">
          <mxGeometry x="80" y="815" width="120" height="60" as="geometry" />
        </mxCell>
        <mxCell id="pwLWd-mjAGraBpHTUjHC-15" value="False" style="edgeStyle=orthogonalEdgeStyle;rounded=0;orthogonalLoop=1;jettySize=auto;html=1;entryX=0.993;entryY=0.664;entryDx=0;entryDy=0;entryPerimeter=0;" parent="WIyWlLk6GJQsqaUBKTNV-1" source="pwLWd-mjAGraBpHTUjHC-2" target="4TRNi6pCDRtCIutJIhP7-13" edge="1">
          <mxGeometry x="-0.6871" y="5" relative="1" as="geometry">
            <Array as="points">
              <mxPoint x="245" y="665" />
              <mxPoint x="245" y="855" />
            </Array>
            <mxPoint as="offset" />
          </mxGeometry>
        </mxCell>
        <mxCell id="pwLWd-mjAGraBpHTUjHC-18" value="" style="edgeStyle=none;curved=1;rounded=0;orthogonalLoop=1;jettySize=auto;html=1;entryX=0.5;entryY=0;entryDx=0;entryDy=0;fontSize=12;startSize=8;endSize=8;labelBackgroundColor=none;fontColor=default;" parent="WIyWlLk6GJQsqaUBKTNV-1" source="Y3o4zUVy-MV-adPHcKIv-6" target="pwLWd-mjAGraBpHTUjHC-19" edge="1">
          <mxGeometry relative="1" as="geometry">
            <mxPoint x="2360" y="540" as="sourcePoint" />
            <mxPoint x="2360" y="700" as="targetPoint" />
          </mxGeometry>
        </mxCell>
        <mxCell id="pwLWd-mjAGraBpHTUjHC-21" value="True" style="edgeStyle=orthogonalEdgeStyle;rounded=0;orthogonalLoop=1;jettySize=auto;html=1;" parent="WIyWlLk6GJQsqaUBKTNV-1" source="pwLWd-mjAGraBpHTUjHC-19" target="pwLWd-mjAGraBpHTUjHC-20" edge="1">
          <mxGeometry relative="1" as="geometry" />
        </mxCell>
        <mxCell id="pwLWd-mjAGraBpHTUjHC-19" value="if due to sunken contacts" style="rhombus;whiteSpace=wrap;html=1;" parent="WIyWlLk6GJQsqaUBKTNV-1" vertex="1">
          <mxGeometry x="2320" y="570" width="80" height="80" as="geometry" />
        </mxCell>
        <mxCell id="pwLWd-mjAGraBpHTUjHC-22" style="edgeStyle=orthogonalEdgeStyle;rounded=0;orthogonalLoop=1;jettySize=auto;html=1;entryX=1;entryY=0.5;entryDx=0;entryDy=0;" parent="WIyWlLk6GJQsqaUBKTNV-1" source="pwLWd-mjAGraBpHTUjHC-20" target="3pm61Zj5QoI2iHKxV5r9-14" edge="1">
          <mxGeometry relative="1" as="geometry">
            <Array as="points">
              <mxPoint x="2520" y="733" />
            </Array>
          </mxGeometry>
        </mxCell>
        <mxCell id="pwLWd-mjAGraBpHTUjHC-20" value="Order a new dock  ('out' if out of stock)" style="rounded=1;whiteSpace=wrap;html=1;" parent="WIyWlLk6GJQsqaUBKTNV-1" vertex="1">
          <mxGeometry x="2450" y="580" width="120" height="60" as="geometry" />
        </mxCell>
        <mxCell id="pwLWd-mjAGraBpHTUjHC-23" value="True" style="edgeStyle=orthogonalEdgeStyle;rounded=0;orthogonalLoop=1;jettySize=auto;html=1;entryX=0.5;entryY=0;entryDx=0;entryDy=0;labelBackgroundColor=none;fontColor=default;" parent="WIyWlLk6GJQsqaUBKTNV-1" source="pwLWd-mjAGraBpHTUjHC-25" target="pwLWd-mjAGraBpHTUjHC-24" edge="1">
          <mxGeometry relative="1" as="geometry">
            <mxPoint x="1385" y="1115" as="sourcePoint" />
            <mxPoint x="1385" y="1316" as="targetPoint" />
          </mxGeometry>
        </mxCell>
        <mxCell id="pwLWd-mjAGraBpHTUjHC-24" value="What's the voltage on the cx dock (it should be ) " style="rounded=1;whiteSpace=wrap;html=1;" parent="WIyWlLk6GJQsqaUBKTNV-1" vertex="1">
          <mxGeometry x="1325" y="1280" width="120" height="60" as="geometry" />
        </mxCell>
        <mxCell id="pwLWd-mjAGraBpHTUjHC-26" value="" style="edgeStyle=orthogonalEdgeStyle;rounded=0;orthogonalLoop=1;jettySize=auto;html=1;entryX=0.5;entryY=0;entryDx=0;entryDy=0;labelBackgroundColor=none;fontColor=default;" parent="WIyWlLk6GJQsqaUBKTNV-1" source="4TRNi6pCDRtCIutJIhP7-166" target="pwLWd-mjAGraBpHTUjHC-25" edge="1">
          <mxGeometry relative="1" as="geometry">
            <mxPoint x="1385" y="1115" as="sourcePoint" />
            <mxPoint x="1385" y="1280" as="targetPoint" />
          </mxGeometry>
        </mxCell>
        <mxCell id="pwLWd-mjAGraBpHTUjHC-25" value="if has dock" style="rhombus;whiteSpace=wrap;html=1;" parent="WIyWlLk6GJQsqaUBKTNV-1" vertex="1">
          <mxGeometry x="1345" y="1160" width="80" height="80" as="geometry" />
        </mxCell>
        <mxCell id="pwLWd-mjAGraBpHTUjHC-27" value="False" style="edgeStyle=orthogonalEdgeStyle;rounded=0;orthogonalLoop=1;jettySize=auto;html=1;entryX=1.008;entryY=0.65;entryDx=0;entryDy=0;entryPerimeter=0;" parent="WIyWlLk6GJQsqaUBKTNV-1" source="pwLWd-mjAGraBpHTUjHC-25" target="4TRNi6pCDRtCIutJIhP7-171" edge="1">
          <mxGeometry x="-0.8492" y="-10" relative="1" as="geometry">
            <Array as="points">
              <mxPoint x="1465" y="1200" />
              <mxPoint x="1465" y="1419" />
            </Array>
            <mxPoint as="offset" />
          </mxGeometry>
        </mxCell>
        <mxCell id="pERgeG-NBUjvUuYuyOd--4" value="False" style="edgeStyle=orthogonalEdgeStyle;rounded=0;orthogonalLoop=1;jettySize=auto;html=1;" parent="WIyWlLk6GJQsqaUBKTNV-1" source="pERgeG-NBUjvUuYuyOd--1" edge="1">
          <mxGeometry relative="1" as="geometry">
            <mxPoint x="140" y="350.0000000000002" as="targetPoint" />
          </mxGeometry>
        </mxCell>
        <mxCell id="pERgeG-NBUjvUuYuyOd--6" value="True" style="edgeStyle=orthogonalEdgeStyle;rounded=0;orthogonalLoop=1;jettySize=auto;html=1;" parent="WIyWlLk6GJQsqaUBKTNV-1" source="pERgeG-NBUjvUuYuyOd--1" target="pERgeG-NBUjvUuYuyOd--5" edge="1">
          <mxGeometry relative="1" as="geometry" />
        </mxCell>
        <mxCell id="pERgeG-NBUjvUuYuyOd--1" value="if M6" style="rhombus;whiteSpace=wrap;html=1;" parent="WIyWlLk6GJQsqaUBKTNV-1" vertex="1">
          <mxGeometry x="95" y="270" width="80" height="40" as="geometry" />
        </mxCell>
        <mxCell id="pERgeG-NBUjvUuYuyOd--2" style="edgeStyle=orthogonalEdgeStyle;rounded=0;orthogonalLoop=1;jettySize=auto;html=1;exitX=0.5;exitY=1;exitDx=0;exitDy=0;" parent="WIyWlLk6GJQsqaUBKTNV-1" source="pERgeG-NBUjvUuYuyOd--1" target="pERgeG-NBUjvUuYuyOd--1" edge="1">
          <mxGeometry relative="1" as="geometry" />
        </mxCell>
        <mxCell id="pERgeG-NBUjvUuYuyOd--7" style="edgeStyle=orthogonalEdgeStyle;rounded=0;orthogonalLoop=1;jettySize=auto;html=1;entryX=1;entryY=0.25;entryDx=0;entryDy=0;" parent="WIyWlLk6GJQsqaUBKTNV-1" source="pERgeG-NBUjvUuYuyOd--5" target="SEcOQ4zRB9NBcKpOXhuR-17" edge="1">
          <mxGeometry relative="1" as="geometry">
            <Array as="points">
              <mxPoint x="300" y="360" />
              <mxPoint x="225" y="360" />
              <mxPoint x="225" y="358" />
            </Array>
            <mxPoint x="225" y="380.0000000000002" as="targetPoint" />
          </mxGeometry>
        </mxCell>
        <mxCell id="pERgeG-NBUjvUuYuyOd--5" value="Pass mobility with a dry pad " style="rounded=1;whiteSpace=wrap;html=1;" parent="WIyWlLk6GJQsqaUBKTNV-1" vertex="1">
          <mxGeometry x="240" y="270" width="120" height="60" as="geometry" />
        </mxCell>
        <mxCell id="pERgeG-NBUjvUuYuyOd--12" value="" style="edgeStyle=orthogonalEdgeStyle;rounded=0;orthogonalLoop=1;jettySize=auto;html=1;" parent="WIyWlLk6GJQsqaUBKTNV-1" source="pERgeG-NBUjvUuYuyOd--9" target="pwLWd-mjAGraBpHTUjHC-2" edge="1">
          <mxGeometry relative="1" as="geometry" />
        </mxCell>
        <mxCell id="pERgeG-NBUjvUuYuyOd--9" value="Close out all parts and get out of case " style="rounded=1;whiteSpace=wrap;html=1;" parent="WIyWlLk6GJQsqaUBKTNV-1" vertex="1">
          <mxGeometry x="80" y="540" width="120" height="60" as="geometry" />
        </mxCell>
        <mxCell id="pERgeG-NBUjvUuYuyOd--18" value="" style="edgeStyle=orthogonalEdgeStyle;rounded=0;orthogonalLoop=1;jettySize=auto;html=1;" parent="WIyWlLk6GJQsqaUBKTNV-1" source="pERgeG-NBUjvUuYuyOd--13" target="pERgeG-NBUjvUuYuyOd--14" edge="1">
          <mxGeometry relative="1" as="geometry" />
        </mxCell>
        <mxCell id="pERgeG-NBUjvUuYuyOd--13" value="Hold" style="ellipse;whiteSpace=wrap;html=1;" parent="WIyWlLk6GJQsqaUBKTNV-1" vertex="1">
          <mxGeometry x="2850" y="70" width="120" height="80" as="geometry" />
        </mxCell>
        <mxCell id="pERgeG-NBUjvUuYuyOd--19" value="" style="edgeStyle=orthogonalEdgeStyle;rounded=0;orthogonalLoop=1;jettySize=auto;html=1;" parent="WIyWlLk6GJQsqaUBKTNV-1" source="pERgeG-NBUjvUuYuyOd--14" target="pERgeG-NBUjvUuYuyOd--15" edge="1">
          <mxGeometry relative="1" as="geometry" />
        </mxCell>
        <mxCell id="pERgeG-NBUjvUuYuyOd--14" value="Add any context about the case " style="rounded=1;whiteSpace=wrap;html=1;" parent="WIyWlLk6GJQsqaUBKTNV-1" vertex="1">
          <mxGeometry x="2850" y="200" width="120" height="60" as="geometry" />
        </mxCell>
        <mxCell id="pERgeG-NBUjvUuYuyOd--20" value="" style="edgeStyle=orthogonalEdgeStyle;rounded=0;orthogonalLoop=1;jettySize=auto;html=1;" parent="WIyWlLk6GJQsqaUBKTNV-1" source="3pm61Zj5QoI2iHKxV5r9-25" target="pERgeG-NBUjvUuYuyOd--16" edge="1">
          <mxGeometry relative="1" as="geometry" />
        </mxCell>
        <mxCell id="pERgeG-NBUjvUuYuyOd--15" value="Copy notes over to CSS   " style="rounded=1;whiteSpace=wrap;html=1;" parent="WIyWlLk6GJQsqaUBKTNV-1" vertex="1">
          <mxGeometry x="2825" y="300" width="170" height="60" as="geometry" />
        </mxCell>
        <mxCell id="pERgeG-NBUjvUuYuyOd--21" value="" style="edgeStyle=orthogonalEdgeStyle;rounded=0;orthogonalLoop=1;jettySize=auto;html=1;" parent="WIyWlLk6GJQsqaUBKTNV-1" source="pERgeG-NBUjvUuYuyOd--16" target="pERgeG-NBUjvUuYuyOd--17" edge="1">
          <mxGeometry relative="1" as="geometry" />
        </mxCell>
        <mxCell id="pERgeG-NBUjvUuYuyOd--16" value="Put everything together, and put on the shelf with the traveler " style="rounded=1;whiteSpace=wrap;html=1;" parent="WIyWlLk6GJQsqaUBKTNV-1" vertex="1">
          <mxGeometry x="2850" y="500" width="120" height="60" as="geometry" />
        </mxCell>
        <mxCell id="pERgeG-NBUjvUuYuyOd--17" value="Good to close case now! " style="rounded=1;whiteSpace=wrap;html=1;" parent="WIyWlLk6GJQsqaUBKTNV-1" vertex="1">
          <mxGeometry x="2850" y="590" width="120" height="60" as="geometry" />
        </mxCell>
        <mxCell id="pERgeG-NBUjvUuYuyOd--26" style="edgeStyle=orthogonalEdgeStyle;rounded=0;orthogonalLoop=1;jettySize=auto;html=1;" parent="WIyWlLk6GJQsqaUBKTNV-1" source="pERgeG-NBUjvUuYuyOd--17" target="pERgeG-NBUjvUuYuyOd--17" edge="1">
          <mxGeometry relative="1" as="geometry" />
        </mxCell>
        <mxCell id="3pm61Zj5QoI2iHKxV5r9-3" value="True" style="edgeStyle=orthogonalEdgeStyle;rounded=0;orthogonalLoop=1;jettySize=auto;html=1;" parent="WIyWlLk6GJQsqaUBKTNV-1" source="3pm61Zj5QoI2iHKxV5r9-1" target="3pm61Zj5QoI2iHKxV5r9-2" edge="1">
          <mxGeometry relative="1" as="geometry" />
        </mxCell>
        <mxCell id="fxsn1H21XU6vCMdtgkNi-14" value="False" style="edgeStyle=orthogonalEdgeStyle;rounded=0;orthogonalLoop=1;jettySize=auto;html=1;entryX=0;entryY=0.5;entryDx=0;entryDy=0;" edge="1" parent="WIyWlLk6GJQsqaUBKTNV-1" source="3pm61Zj5QoI2iHKxV5r9-1" target="fxsn1H21XU6vCMdtgkNi-12">
          <mxGeometry relative="1" as="geometry" />
        </mxCell>
        <mxCell id="3pm61Zj5QoI2iHKxV5r9-1" value="if repeat" style="rhombus;whiteSpace=wrap;html=1;" parent="WIyWlLk6GJQsqaUBKTNV-1" vertex="1">
          <mxGeometry x="100" y="2790" width="80" height="80" as="geometry" />
        </mxCell>
        <mxCell id="fxsn1H21XU6vCMdtgkNi-10" style="edgeStyle=orthogonalEdgeStyle;rounded=0;orthogonalLoop=1;jettySize=auto;html=1;entryX=0.5;entryY=0;entryDx=0;entryDy=0;" edge="1" parent="WIyWlLk6GJQsqaUBKTNV-1" source="3pm61Zj5QoI2iHKxV5r9-2" target="fxsn1H21XU6vCMdtgkNi-12">
          <mxGeometry relative="1" as="geometry">
            <mxPoint x="270" y="2930" as="targetPoint" />
          </mxGeometry>
        </mxCell>
        <mxCell id="3pm61Zj5QoI2iHKxV5r9-2" value="Send adjustment " style="rounded=1;whiteSpace=wrap;html=1;" parent="WIyWlLk6GJQsqaUBKTNV-1" vertex="1">
          <mxGeometry x="230" y="2800" width="120" height="60" as="geometry" />
        </mxCell>
        <mxCell id="3pm61Zj5QoI2iHKxV5r9-6" value="" style="edgeStyle=orthogonalEdgeStyle;rounded=0;orthogonalLoop=1;jettySize=auto;html=1;" parent="WIyWlLk6GJQsqaUBKTNV-1" source="3pm61Zj5QoI2iHKxV5r9-5" target="RLRDXqjsHfM8Xnnao1ib-3" edge="1">
          <mxGeometry relative="1" as="geometry" />
        </mxCell>
        <mxCell id="3pm61Zj5QoI2iHKxV5r9-5" value="" style="shape=hexagon;perimeter=hexagonPerimeter2;whiteSpace=wrap;html=1;fixedSize=1;" parent="WIyWlLk6GJQsqaUBKTNV-1" vertex="1">
          <mxGeometry x="90" y="3272.5" width="120" height="80" as="geometry" />
        </mxCell>
        <mxCell id="3pm61Zj5QoI2iHKxV5r9-10" value="False" style="edgeStyle=orthogonalEdgeStyle;rounded=0;orthogonalLoop=1;jettySize=auto;html=1;" parent="WIyWlLk6GJQsqaUBKTNV-1" source="3pm61Zj5QoI2iHKxV5r9-8" target="Y3o4zUVy-MV-adPHcKIv-7" edge="1">
          <mxGeometry relative="1" as="geometry" />
        </mxCell>
        <mxCell id="3pm61Zj5QoI2iHKxV5r9-12" style="edgeStyle=orthogonalEdgeStyle;rounded=0;orthogonalLoop=1;jettySize=auto;html=1;entryX=0;entryY=0.5;entryDx=0;entryDy=0;" parent="WIyWlLk6GJQsqaUBKTNV-1" source="3pm61Zj5QoI2iHKxV5r9-8" target="3pm61Zj5QoI2iHKxV5r9-14" edge="1">
          <mxGeometry relative="1" as="geometry">
            <mxPoint x="2280" y="740" as="targetPoint" />
            <Array as="points">
              <mxPoint x="2230" y="170" />
              <mxPoint x="2230" y="733" />
            </Array>
          </mxGeometry>
        </mxCell>
        <mxCell id="3pm61Zj5QoI2iHKxV5r9-13" value="True" style="edgeLabel;html=1;align=center;verticalAlign=middle;resizable=0;points=[];" parent="3pm61Zj5QoI2iHKxV5r9-12" vertex="1" connectable="0">
          <mxGeometry x="-0.863" y="2" relative="1" as="geometry">
            <mxPoint as="offset" />
          </mxGeometry>
        </mxCell>
        <mxCell id="3pm61Zj5QoI2iHKxV5r9-8" value="if has swapped before" style="rhombus;whiteSpace=wrap;html=1;" parent="WIyWlLk6GJQsqaUBKTNV-1" vertex="1">
          <mxGeometry x="2320" y="130" width="80" height="80" as="geometry" />
        </mxCell>
        <mxCell id="3pm61Zj5QoI2iHKxV5r9-15" value="" style="edgeStyle=orthogonalEdgeStyle;rounded=0;orthogonalLoop=1;jettySize=auto;html=1;" parent="WIyWlLk6GJQsqaUBKTNV-1" source="3pm61Zj5QoI2iHKxV5r9-14" target="g3EVMuYso_FqyBGCc2nE-8" edge="1">
          <mxGeometry relative="1" as="geometry" />
        </mxCell>
        <mxCell id="3pm61Zj5QoI2iHKxV5r9-14" value="" style="shape=hexagon;perimeter=hexagonPerimeter2;whiteSpace=wrap;html=1;fixedSize=1;" parent="WIyWlLk6GJQsqaUBKTNV-1" vertex="1">
          <mxGeometry x="2310" y="710" width="100" height="45" as="geometry" />
        </mxCell>
        <mxCell id="3pm61Zj5QoI2iHKxV5r9-16" value="" style="edgeStyle=orthogonalEdgeStyle;rounded=0;orthogonalLoop=1;jettySize=auto;html=1;entryX=0.5;entryY=0;entryDx=0;entryDy=0;labelBackgroundColor=none;fontColor=default;" parent="WIyWlLk6GJQsqaUBKTNV-1" source="4TRNi6pCDRtCIutJIhP7-146" edge="1">
          <mxGeometry relative="1" as="geometry">
            <mxPoint x="975" y="2380" as="sourcePoint" />
            <mxPoint x="975" y="2470" as="targetPoint" />
          </mxGeometry>
        </mxCell>
        <mxCell id="3pm61Zj5QoI2iHKxV5r9-18" value="" style="shape=hexagon;perimeter=hexagonPerimeter2;whiteSpace=wrap;html=1;fixedSize=1;" parent="WIyWlLk6GJQsqaUBKTNV-1" vertex="1">
          <mxGeometry x="915" y="2470" width="120" height="80" as="geometry" />
        </mxCell>
        <mxCell id="3pm61Zj5QoI2iHKxV5r9-19" value="" style="edgeStyle=orthogonalEdgeStyle;rounded=0;orthogonalLoop=1;jettySize=auto;html=1;entryX=0.5;entryY=0;entryDx=0;entryDy=0;labelBackgroundColor=none;fontColor=default;exitX=0.5;exitY=1;exitDx=0;exitDy=0;" parent="WIyWlLk6GJQsqaUBKTNV-1" source="3pm61Zj5QoI2iHKxV5r9-18" target="3pm61Zj5QoI2iHKxV5r9-20" edge="1">
          <mxGeometry relative="1" as="geometry">
            <mxPoint x="975" y="2550" as="sourcePoint" />
            <mxPoint x="975" y="2680" as="targetPoint" />
          </mxGeometry>
        </mxCell>
        <mxCell id="3pm61Zj5QoI2iHKxV5r9-22" value="True" style="edgeStyle=orthogonalEdgeStyle;rounded=0;orthogonalLoop=1;jettySize=auto;html=1;" parent="WIyWlLk6GJQsqaUBKTNV-1" source="3pm61Zj5QoI2iHKxV5r9-20" target="3pm61Zj5QoI2iHKxV5r9-21" edge="1">
          <mxGeometry relative="1" as="geometry" />
        </mxCell>
        <mxCell id="3pm61Zj5QoI2iHKxV5r9-20" value="if needs_audio_test" style="rhombus;whiteSpace=wrap;html=1;" parent="WIyWlLk6GJQsqaUBKTNV-1" vertex="1">
          <mxGeometry x="940" y="2580" width="80" height="80" as="geometry" />
        </mxCell>
        <mxCell id="3pm61Zj5QoI2iHKxV5r9-23" style="edgeStyle=orthogonalEdgeStyle;rounded=0;orthogonalLoop=1;jettySize=auto;html=1;entryX=1;entryY=0.5;entryDx=0;entryDy=0;" parent="WIyWlLk6GJQsqaUBKTNV-1" source="3pm61Zj5QoI2iHKxV5r9-21" target="4TRNi6pCDRtCIutJIhP7-159" edge="1">
          <mxGeometry relative="1" as="geometry">
            <Array as="points">
              <mxPoint x="1130" y="2785" />
            </Array>
          </mxGeometry>
        </mxCell>
        <mxCell id="3pm61Zj5QoI2iHKxV5r9-21" value="Is the audio quiet or silent? (1: quiet, 2: silent) " style="rounded=1;whiteSpace=wrap;html=1;" parent="WIyWlLk6GJQsqaUBKTNV-1" vertex="1">
          <mxGeometry x="1070" y="2590" width="120" height="60" as="geometry" />
        </mxCell>
        <mxCell id="3pm61Zj5QoI2iHKxV5r9-24" value="" style="edgeStyle=orthogonalEdgeStyle;rounded=0;orthogonalLoop=1;jettySize=auto;html=1;" parent="WIyWlLk6GJQsqaUBKTNV-1" source="pERgeG-NBUjvUuYuyOd--15" target="3pm61Zj5QoI2iHKxV5r9-25" edge="1">
          <mxGeometry relative="1" as="geometry">
            <mxPoint x="2910" y="360" as="sourcePoint" />
            <mxPoint x="2910" y="500" as="targetPoint" />
          </mxGeometry>
        </mxCell>
        <mxCell id="3pm61Zj5QoI2iHKxV5r9-25" value="Unuse any parts, but don't close out parts! " style="rounded=1;whiteSpace=wrap;html=1;" parent="WIyWlLk6GJQsqaUBKTNV-1" vertex="1">
          <mxGeometry x="2850" y="398" width="120" height="60" as="geometry" />
        </mxCell>
        <mxCell id="3pm61Zj5QoI2iHKxV5r9-26" value="False" style="edgeStyle=orthogonalEdgeStyle;rounded=0;orthogonalLoop=1;jettySize=auto;html=1;" parent="WIyWlLk6GJQsqaUBKTNV-1" source="YPjIWQZWxmA1oh4F8OOP-0" target="3pm61Zj5QoI2iHKxV5r9-27" edge="1">
          <mxGeometry x="-0.6028" relative="1" as="geometry">
            <mxPoint x="600" y="1095" as="sourcePoint" />
            <mxPoint x="600" y="1271" as="targetPoint" />
            <mxPoint as="offset" />
          </mxGeometry>
        </mxCell>
        <mxCell id="3pm61Zj5QoI2iHKxV5r9-27" value="" style="shape=hexagon;perimeter=hexagonPerimeter2;whiteSpace=wrap;html=1;fixedSize=1;" parent="WIyWlLk6GJQsqaUBKTNV-1" vertex="1">
          <mxGeometry x="554.5" y="1130" width="91" height="40" as="geometry" />
        </mxCell>
        <mxCell id="3pm61Zj5QoI2iHKxV5r9-31" value="" style="edgeStyle=orthogonalEdgeStyle;rounded=0;orthogonalLoop=1;jettySize=auto;html=1;" parent="WIyWlLk6GJQsqaUBKTNV-1" source="3pm61Zj5QoI2iHKxV5r9-27" target="3pm61Zj5QoI2iHKxV5r9-30" edge="1">
          <mxGeometry x="-1" y="110" relative="1" as="geometry">
            <mxPoint x="600" y="1170" as="sourcePoint" />
            <mxPoint x="600" y="1271" as="targetPoint" />
            <mxPoint x="-109" y="-110" as="offset" />
          </mxGeometry>
        </mxCell>
        <mxCell id="3pm61Zj5QoI2iHKxV5r9-33" value="True" style="edgeStyle=orthogonalEdgeStyle;rounded=0;orthogonalLoop=1;jettySize=auto;html=1;" parent="WIyWlLk6GJQsqaUBKTNV-1" source="3pm61Zj5QoI2iHKxV5r9-30" target="3pm61Zj5QoI2iHKxV5r9-32" edge="1">
          <mxGeometry relative="1" as="geometry">
            <Array as="points">
              <mxPoint x="660" y="1210" />
              <mxPoint x="660" y="1210" />
            </Array>
          </mxGeometry>
        </mxCell>
        <mxCell id="3pm61Zj5QoI2iHKxV5r9-30" value="if is combo" style="rhombus;whiteSpace=wrap;html=1;" parent="WIyWlLk6GJQsqaUBKTNV-1" vertex="1">
          <mxGeometry x="560" y="1190" width="80" height="50" as="geometry" />
        </mxCell>
        <mxCell id="3pm61Zj5QoI2iHKxV5r9-32" value="Is there a pad on the bot " style="rounded=1;whiteSpace=wrap;html=1;" parent="WIyWlLk6GJQsqaUBKTNV-1" vertex="1">
          <mxGeometry x="670" y="1185" width="120" height="60" as="geometry" />
        </mxCell>
        <mxCell id="3pm61Zj5QoI2iHKxV5r9-34" style="edgeStyle=orthogonalEdgeStyle;rounded=0;orthogonalLoop=1;jettySize=auto;html=1;entryX=0.993;entryY=0.615;entryDx=0;entryDy=0;entryPerimeter=0;" parent="WIyWlLk6GJQsqaUBKTNV-1" source="3pm61Zj5QoI2iHKxV5r9-32" target="4TRNi6pCDRtCIutJIhP7-89" edge="1">
          <mxGeometry relative="1" as="geometry">
            <Array as="points">
              <mxPoint x="730" y="1308" />
            </Array>
          </mxGeometry>
        </mxCell>
        <mxCell id="3pm61Zj5QoI2iHKxV5r9-36" value="" style="edgeStyle=orthogonalEdgeStyle;rounded=0;orthogonalLoop=1;jettySize=auto;html=1;" parent="WIyWlLk6GJQsqaUBKTNV-1" source="RLRDXqjsHfM8Xnnao1ib-0" target="3pm61Zj5QoI2iHKxV5r9-37" edge="1">
          <mxGeometry relative="1" as="geometry">
            <mxPoint x="2360" y="1345" as="sourcePoint" />
            <mxPoint x="2360" y="1460" as="targetPoint" />
          </mxGeometry>
        </mxCell>
        <mxCell id="3pm61Zj5QoI2iHKxV5r9-37" value="What's the serial number of the new bot" style="rounded=1;whiteSpace=wrap;html=1;" parent="WIyWlLk6GJQsqaUBKTNV-1" vertex="1">
          <mxGeometry x="2300" y="1370" width="120" height="60" as="geometry" />
        </mxCell>
        <mxCell id="3pm61Zj5QoI2iHKxV5r9-43" value="" style="edgeStyle=orthogonalEdgeStyle;rounded=0;orthogonalLoop=1;jettySize=auto;html=1;labelBackgroundColor=none;fontColor=default;entryX=0.5;entryY=0;entryDx=0;entryDy=0;" parent="WIyWlLk6GJQsqaUBKTNV-1" source="Y3o4zUVy-MV-adPHcKIv-0" target="4TRNi6pCDRtCIutJIhP7-82" edge="1">
          <mxGeometry relative="1" as="geometry">
            <mxPoint x="600" y="200" as="sourcePoint" />
            <mxPoint x="599" y="318" as="targetPoint" />
          </mxGeometry>
        </mxCell>
        <mxCell id="4TRNi6pCDRtCIutJIhP7-82" value="Confirm IDs" style="rounded=1;whiteSpace=wrap;html=1;labelBackgroundColor=none;" parent="WIyWlLk6GJQsqaUBKTNV-1" vertex="1">
          <mxGeometry x="539" y="230" width="120" height="60" as="geometry" />
        </mxCell>
        <mxCell id="SEcOQ4zRB9NBcKpOXhuR-0" value="" style="edgeStyle=none;curved=1;rounded=0;orthogonalLoop=1;jettySize=auto;html=1;fontSize=12;startSize=8;endSize=8;labelBackgroundColor=none;fontColor=default;entryX=0.5;entryY=0;entryDx=0;entryDy=0;" parent="WIyWlLk6GJQsqaUBKTNV-1" source="g3EVMuYso_FqyBGCc2nE-5" target="SEcOQ4zRB9NBcKpOXhuR-1" edge="1">
          <mxGeometry relative="1" as="geometry">
            <mxPoint x="140" y="2840" as="targetPoint" />
            <mxPoint x="140" y="2650" as="sourcePoint" />
          </mxGeometry>
        </mxCell>
        <mxCell id="SEcOQ4zRB9NBcKpOXhuR-2" value="" style="edgeStyle=orthogonalEdgeStyle;rounded=0;orthogonalLoop=1;jettySize=auto;html=1;" parent="WIyWlLk6GJQsqaUBKTNV-1" source="SEcOQ4zRB9NBcKpOXhuR-1" target="3pm61Zj5QoI2iHKxV5r9-1" edge="1">
          <mxGeometry relative="1" as="geometry" />
        </mxCell>
        <mxCell id="SEcOQ4zRB9NBcKpOXhuR-1" value="" style="shape=hexagon;perimeter=hexagonPerimeter2;whiteSpace=wrap;html=1;fixedSize=1;" parent="WIyWlLk6GJQsqaUBKTNV-1" vertex="1">
          <mxGeometry x="80" y="2690" width="120" height="80" as="geometry" />
        </mxCell>
        <mxCell id="SEcOQ4zRB9NBcKpOXhuR-7" value="" style="edgeStyle=orthogonalEdgeStyle;rounded=0;orthogonalLoop=1;jettySize=auto;html=1;entryX=0.5;entryY=0;entryDx=0;entryDy=0;labelBackgroundColor=none;fontColor=default;" parent="WIyWlLk6GJQsqaUBKTNV-1" target="SEcOQ4zRB9NBcKpOXhuR-8" edge="1">
          <mxGeometry relative="1" as="geometry">
            <mxPoint x="140" y="1806.25" as="sourcePoint" />
            <mxPoint x="140" y="1930" as="targetPoint" />
          </mxGeometry>
        </mxCell>
        <mxCell id="SEcOQ4zRB9NBcKpOXhuR-11" style="edgeStyle=orthogonalEdgeStyle;rounded=0;orthogonalLoop=1;jettySize=auto;html=1;" parent="WIyWlLk6GJQsqaUBKTNV-1" source="SEcOQ4zRB9NBcKpOXhuR-8" target="SEcOQ4zRB9NBcKpOXhuR-9" edge="1">
          <mxGeometry relative="1" as="geometry" />
        </mxCell>
        <mxCell id="SEcOQ4zRB9NBcKpOXhuR-8" value="if setting ask_screws_on_tight" style="rhombus;whiteSpace=wrap;html=1;" parent="WIyWlLk6GJQsqaUBKTNV-1" vertex="1">
          <mxGeometry x="100" y="1830" width="80" height="80" as="geometry" />
        </mxCell>
        <mxCell id="SEcOQ4zRB9NBcKpOXhuR-12" style="edgeStyle=orthogonalEdgeStyle;rounded=0;orthogonalLoop=1;jettySize=auto;html=1;" parent="WIyWlLk6GJQsqaUBKTNV-1" source="SEcOQ4zRB9NBcKpOXhuR-9" target="pwLWd-mjAGraBpHTUjHC-7" edge="1">
          <mxGeometry relative="1" as="geometry">
            <Array as="points">
              <mxPoint x="300" y="2020" />
              <mxPoint x="140" y="2020" />
            </Array>
          </mxGeometry>
        </mxCell>
        <mxCell id="SEcOQ4zRB9NBcKpOXhuR-9" value="" style="shape=hexagon;perimeter=hexagonPerimeter2;whiteSpace=wrap;html=1;fixedSize=1;" parent="WIyWlLk6GJQsqaUBKTNV-1" vertex="1">
          <mxGeometry x="240" y="1930" width="120" height="80" as="geometry" />
        </mxCell>
        <mxCell id="SEcOQ4zRB9NBcKpOXhuR-13" value="" style="shape=hexagon;perimeter=hexagonPerimeter2;whiteSpace=wrap;html=1;fixedSize=1;" parent="WIyWlLk6GJQsqaUBKTNV-1" vertex="1">
          <mxGeometry x="85" y="1750" width="120" height="60" as="geometry" />
        </mxCell>
        <mxCell id="SEcOQ4zRB9NBcKpOXhuR-14" value="False" style="edgeStyle=orthogonalEdgeStyle;rounded=0;orthogonalLoop=1;jettySize=auto;html=1;" parent="WIyWlLk6GJQsqaUBKTNV-1" source="SEcOQ4zRB9NBcKpOXhuR-21" target="SEcOQ4zRB9NBcKpOXhuR-15" edge="1">
          <mxGeometry relative="1" as="geometry">
            <mxPoint x="140" y="410.0000000000002" as="sourcePoint" />
            <mxPoint x="140" y="530" as="targetPoint" />
            <Array as="points">
              <mxPoint x="60" y="435" />
              <mxPoint x="140" y="435" />
            </Array>
          </mxGeometry>
        </mxCell>
        <mxCell id="SEcOQ4zRB9NBcKpOXhuR-15" value="Fill in CSS  " style="rounded=1;whiteSpace=wrap;html=1;" parent="WIyWlLk6GJQsqaUBKTNV-1" vertex="1">
          <mxGeometry x="40" y="455" width="200" height="60" as="geometry" />
        </mxCell>
        <mxCell id="SEcOQ4zRB9NBcKpOXhuR-20" value="True" style="edgeStyle=orthogonalEdgeStyle;rounded=0;orthogonalLoop=1;jettySize=auto;html=1;entryX=0;entryY=0.5;entryDx=0;entryDy=0;exitX=0.625;exitY=0.75;exitDx=0;exitDy=0;exitPerimeter=0;" parent="WIyWlLk6GJQsqaUBKTNV-1" source="SEcOQ4zRB9NBcKpOXhuR-21" target="SEcOQ4zRB9NBcKpOXhuR-19" edge="1">
          <mxGeometry relative="1" as="geometry">
            <Array as="points">
              <mxPoint x="190" y="410" />
              <mxPoint x="190" y="428" />
            </Array>
          </mxGeometry>
        </mxCell>
        <mxCell id="SEcOQ4zRB9NBcKpOXhuR-23" style="edgeStyle=orthogonalEdgeStyle;rounded=0;orthogonalLoop=1;jettySize=auto;html=1;entryX=1;entryY=0.5;entryDx=0;entryDy=0;" parent="WIyWlLk6GJQsqaUBKTNV-1" source="SEcOQ4zRB9NBcKpOXhuR-17" target="SEcOQ4zRB9NBcKpOXhuR-21" edge="1">
          <mxGeometry relative="1" as="geometry">
            <Array as="points">
              <mxPoint x="120" y="390" />
            </Array>
          </mxGeometry>
        </mxCell>
        <mxCell id="SEcOQ4zRB9NBcKpOXhuR-17" value="" style="shape=hexagon;perimeter=hexagonPerimeter2;whiteSpace=wrap;html=1;fixedSize=1;" parent="WIyWlLk6GJQsqaUBKTNV-1" vertex="1">
          <mxGeometry x="100" y="350" width="115" height="30" as="geometry" />
        </mxCell>
        <mxCell id="SEcOQ4zRB9NBcKpOXhuR-19" value="Remove provisioning " style="rounded=1;whiteSpace=wrap;html=1;" parent="WIyWlLk6GJQsqaUBKTNV-1" vertex="1">
          <mxGeometry x="270" y="398" width="160" height="60" as="geometry" />
        </mxCell>
        <mxCell id="SEcOQ4zRB9NBcKpOXhuR-21" value="if provisioned to app" style="rhombus;whiteSpace=wrap;html=1;" parent="WIyWlLk6GJQsqaUBKTNV-1" vertex="1">
          <mxGeometry x="20" y="350" width="80" height="80" as="geometry" />
        </mxCell>
        <mxCell id="SEcOQ4zRB9NBcKpOXhuR-22" style="edgeStyle=orthogonalEdgeStyle;rounded=0;orthogonalLoop=1;jettySize=auto;html=1;entryX=1.007;entryY=0.622;entryDx=0;entryDy=0;entryPerimeter=0;" parent="WIyWlLk6GJQsqaUBKTNV-1" source="SEcOQ4zRB9NBcKpOXhuR-19" target="SEcOQ4zRB9NBcKpOXhuR-15" edge="1">
          <mxGeometry relative="1" as="geometry">
            <Array as="points">
              <mxPoint x="350" y="492" />
            </Array>
          </mxGeometry>
        </mxCell>
        <mxCell id="fxsn1H21XU6vCMdtgkNi-3" value="False" style="edgeStyle=orthogonalEdgeStyle;rounded=0;orthogonalLoop=1;jettySize=auto;html=1;" edge="1" parent="WIyWlLk6GJQsqaUBKTNV-1" source="fxsn1H21XU6vCMdtgkNi-0" target="fxsn1H21XU6vCMdtgkNi-2">
          <mxGeometry relative="1" as="geometry" />
        </mxCell>
        <mxCell id="fxsn1H21XU6vCMdtgkNi-11" value="True" style="edgeStyle=orthogonalEdgeStyle;rounded=0;orthogonalLoop=1;jettySize=auto;html=1;entryX=0.5;entryY=0;entryDx=0;entryDy=0;" edge="1" parent="WIyWlLk6GJQsqaUBKTNV-1" source="fxsn1H21XU6vCMdtgkNi-0" target="N_G4AyvHokrERCju8nTB-5">
          <mxGeometry relative="1" as="geometry" />
        </mxCell>
        <mxCell id="fxsn1H21XU6vCMdtgkNi-0" value="if settings.SPLIT_FINAL_STEPS" style="rhombus;whiteSpace=wrap;html=1;" vertex="1" parent="WIyWlLk6GJQsqaUBKTNV-1">
          <mxGeometry x="60" y="2960" width="185" height="80" as="geometry" />
        </mxCell>
        <mxCell id="fxsn1H21XU6vCMdtgkNi-6" style="edgeStyle=orthogonalEdgeStyle;rounded=0;orthogonalLoop=1;jettySize=auto;html=1;entryX=1;entryY=0.5;entryDx=0;entryDy=0;" edge="1" parent="WIyWlLk6GJQsqaUBKTNV-1" target="4TRNi6pCDRtCIutJIhP7-192">
          <mxGeometry relative="1" as="geometry">
            <mxPoint x="495" y="3650" as="targetPoint" />
            <mxPoint x="414.75" y="3060" as="sourcePoint" />
            <Array as="points">
              <mxPoint x="415" y="3061" />
              <mxPoint x="530" y="3061" />
              <mxPoint x="530" y="3638" />
            </Array>
          </mxGeometry>
        </mxCell>
        <mxCell id="fxsn1H21XU6vCMdtgkNi-2" value="Wait for parts, finish on CSS, then put on shelf  " style="rounded=1;whiteSpace=wrap;html=1;" vertex="1" parent="WIyWlLk6GJQsqaUBKTNV-1">
          <mxGeometry x="300" y="3030" width="120" height="60" as="geometry" />
        </mxCell>
        <mxCell id="fxsn1H21XU6vCMdtgkNi-15" value="" style="edgeStyle=orthogonalEdgeStyle;rounded=0;orthogonalLoop=1;jettySize=auto;html=1;" edge="1" parent="WIyWlLk6GJQsqaUBKTNV-1" source="fxsn1H21XU6vCMdtgkNi-12" target="fxsn1H21XU6vCMdtgkNi-0">
          <mxGeometry relative="1" as="geometry" />
        </mxCell>
        <mxCell id="fxsn1H21XU6vCMdtgkNi-12" value="" style="shape=hexagon;perimeter=hexagonPerimeter2;whiteSpace=wrap;html=1;fixedSize=1;" vertex="1" parent="WIyWlLk6GJQsqaUBKTNV-1">
          <mxGeometry x="165" y="2900" width="90" height="40" as="geometry" />
        </mxCell>
        <mxCell id="fxsn1H21XU6vCMdtgkNi-20" value="False" style="edgeStyle=orthogonalEdgeStyle;rounded=0;orthogonalLoop=1;jettySize=auto;html=1;" edge="1" parent="WIyWlLk6GJQsqaUBKTNV-1" source="fxsn1H21XU6vCMdtgkNi-22" target="4TRNi6pCDRtCIutJIhP7-125">
          <mxGeometry relative="1" as="geometry" />
        </mxCell>
        <mxCell id="fxsn1H21XU6vCMdtgkNi-19" value="" style="shape=hexagon;perimeter=hexagonPerimeter2;whiteSpace=wrap;html=1;fixedSize=1;" vertex="1" parent="WIyWlLk6GJQsqaUBKTNV-1">
          <mxGeometry x="932.5" y="1451.25" width="85" height="38.75" as="geometry" />
        </mxCell>
        <mxCell id="fxsn1H21XU6vCMdtgkNi-27" style="edgeStyle=orthogonalEdgeStyle;rounded=0;orthogonalLoop=1;jettySize=auto;html=1;entryX=1;entryY=0;entryDx=0;entryDy=0;" edge="1" parent="WIyWlLk6GJQsqaUBKTNV-1" source="fxsn1H21XU6vCMdtgkNi-21" target="YPjIWQZWxmA1oh4F8OOP-54">
          <mxGeometry relative="1" as="geometry">
            <Array as="points">
              <mxPoint x="1120" y="1710" />
            </Array>
          </mxGeometry>
        </mxCell>
        <mxCell id="fxsn1H21XU6vCMdtgkNi-21" value="" style="shape=hexagon;perimeter=hexagonPerimeter2;whiteSpace=wrap;html=1;fixedSize=1;" vertex="1" parent="WIyWlLk6GJQsqaUBKTNV-1">
          <mxGeometry x="1070" y="1618" width="100" height="34" as="geometry" />
        </mxCell>
        <mxCell id="fxsn1H21XU6vCMdtgkNi-23" value="" style="edgeStyle=orthogonalEdgeStyle;rounded=0;orthogonalLoop=1;jettySize=auto;html=1;" edge="1" parent="WIyWlLk6GJQsqaUBKTNV-1" source="fxsn1H21XU6vCMdtgkNi-19" target="fxsn1H21XU6vCMdtgkNi-22">
          <mxGeometry relative="1" as="geometry">
            <mxPoint x="975" y="1490" as="sourcePoint" />
            <mxPoint x="975" y="1580" as="targetPoint" />
          </mxGeometry>
        </mxCell>
        <mxCell id="fxsn1H21XU6vCMdtgkNi-26" value="True" style="edgeStyle=orthogonalEdgeStyle;rounded=0;orthogonalLoop=1;jettySize=auto;html=1;" edge="1" parent="WIyWlLk6GJQsqaUBKTNV-1" source="fxsn1H21XU6vCMdtgkNi-22" target="fxsn1H21XU6vCMdtgkNi-21">
          <mxGeometry relative="1" as="geometry" />
        </mxCell>
        <mxCell id="fxsn1H21XU6vCMdtgkNi-22" value="if M6, or non-modular" style="rhombus;whiteSpace=wrap;html=1;" vertex="1" parent="WIyWlLk6GJQsqaUBKTNV-1">
          <mxGeometry x="920" y="1506.25" width="110" height="80" as="geometry" />
        </mxCell>
      </root>
    </mxGraphModel>
  </diagram>
</mxfile>
